<svg xmlns="http://www.w3.org/2000/svg" viewBox="0 0 380.24 401.94"><defs><style>.cls-1{fill:#4aabb1;}.cls-2{fill:#70bcc1;}.cls-3{fill:#3b8489;}.cls-4{fill:#da1e38;}</style></defs><title>teal_giftbox</title><g id="Layer_2" data-name="Layer 2"><g id="Layer_2-2" data-name="Layer 2"><rect class="cls-1" y="79.24" width="380.24" height="75.15"/><rect class="cls-1" x="18.34" y="154.39" width="343.56" height="247.56"/><path class="cls-2" d="M18.34,156.05V172.4l18-18H20Z"/><path class="cls-2" d="M328,401.94q17-16.85,33.91-33.82v-17l-50.81,50.81Z"/><path class="cls-2" d="M18.34,215.77v16.81q39.13-39.15,78.19-78.19H79.75Q49,185.05,18.34,215.77Z"/><path class="cls-2" d="M139.62,154.39Q78.88,214.92,18.34,275.61v16.47L156,154.39Z"/><path class="cls-2" d="M199.11,154.39q-65.55,65.69-131.2,131.28-24.79,24.79-49.57,49.64v15.9L215.16,154.39Z"/><path class="cls-2" d="M361.9,248.62V232.45L192.41,401.94h16.17Q285.29,325.34,361.9,248.62Z"/><path class="cls-2" d="M149,401.94q64.53-64.74,129.22-129.33Q320,230.74,361.9,188.84V172.4L132.36,401.94Z"/><path class="cls-2" d="M277.12,154.39H258.84Q138.66,274.72,18.34,394.89v7.05H29.41Q153.36,278.25,277.12,154.39Z"/><path class="cls-2" d="M361.9,308.36V292.25L252.21,401.94h16.06Q315.16,355.23,361.9,308.36Z"/><path class="cls-2" d="M336.62,154.39h-18Q195,278.25,71.12,401.94H89.19Q212.84,278.09,336.62,154.39Z"/><rect class="cls-3" x="18.34" y="154.39" width="343.56" height="24.19"/><rect class="cls-4" x="167.2" y="79.24" width="45.85" height="322.7"/><polygon class="cls-4" points="190.12 79.24 294.91 0 281.45 41.37 321.7 53.59 197.47 90.94 190.12 79.24"/><polygon class="cls-4" points="196.63 85.16 255.91 123.68 242.74 140.11 193.06 91.63 196.63 85.16"/><polygon class="cls-4" points="190.12 79.24 85.33 0 98.79 41.37 58.54 53.59 182.77 90.94 190.12 79.24"/><polygon class="cls-4" points="183.61 85.16 124.33 123.68 137.5 140.11 187.19 91.63 183.61 85.16"/></g></g></svg>