<svg xmlns="http://www.w3.org/2000/svg" viewBox="0 0 110.18 101.17"><defs><style>.cls-1{fill:#a71e2d;}.cls-2{fill:#f0a31f;}.cls-3{fill:#f4b53d;}.cls-4{fill:#b87d2b;}.cls-5{fill:#da1e38;}</style></defs><title>gold_giftbox</title><g id="Layer_2" data-name="Layer 2"><g id="Layer_2-2" data-name="Layer 2"><path class="cls-1" d="M54.2,32a188.75,188.75,0,0,1-21.32-1.08c-1.79-.23-3.58-.5-5.38-.9-.91-.2-1.81-.43-2.73-.72A14.9,14.9,0,0,1,22,28.1a7,7,0,0,1-.74-.47l-.38-.29-.18-.15a2.49,2.49,0,0,1-.23-.23,6,6,0,0,1-.46-.54l-.21-.28-.1-.17-.16-.29,0-.07v0l-.13-.3v-.05L19.23,25a7.89,7.89,0,0,1-.37-1.76l-.07-.88a8,8,0,0,1,0-.85,14.11,14.11,0,0,1,2-6,17,17,0,0,1,4-4.7l.62-.5.69-.44c.23-.15.46-.3.7-.44l.77-.37a9.11,9.11,0,0,1,1.64-.61l.44-.12c.17,0,.36-.06.54-.09.37-.05.74-.08,1.11-.11h.43l.33,0,.33,0h.23l.3,0,.1,0c.51.13,1.06.21,1.55.38a13.53,13.53,0,0,1,1.48.5,14.77,14.77,0,0,1,1.4.61,26.11,26.11,0,0,1,4.93,3.16A45.07,45.07,0,0,1,50.05,21a61.9,61.9,0,0,1,5.75,9.21c.52,1-1.74,2.39-2.39,1.53C51.28,29,49,26.3,46.67,23.8A58.29,58.29,0,0,0,39.21,17a24.48,24.48,0,0,0-4.05-2.44,9.24,9.24,0,0,0-1-.44,10.42,10.42,0,0,0-1-.35c-.34-.12-.68-.16-1-.25H32l.26,0H32l-.33,0-.33,0H31.2s0,0-.06,0a.56.56,0,0,1-.21.06h-.11l-.21.06a4.42,4.42,0,0,0-.84.29l-.43.19-.44.26-.44.26L28,15a12.92,12.92,0,0,0-3,3.18A9.74,9.74,0,0,0,23.47,22a3.6,3.6,0,0,0-.06.91,3.73,3.73,0,0,0,.09.84l0,.11h0c-.2-.05.44.13-.44-.11l.06,0,.13,0,.25.05.07.15s.06.14.06.12a0,0,0,0,0,0,0,.08.08,0,0,0,0,0c-.05,0,0,0,.06.08l.14.13a1.87,1.87,0,0,0,.36.27,10,10,0,0,0,2,1,23.61,23.61,0,0,0,2.32.86c1.61.53,3.28,1,5,1.36a172.92,172.92,0,0,0,20.8,3.3C55.42,31.19,55.33,32,54.2,32Z"/><path class="cls-1" d="M55.93,31.12a171.42,171.42,0,0,0,20.81-3.3c1.69-.4,3.36-.85,5-1.37.8-.26,1.58-.56,2.32-.87a11,11,0,0,0,2-1,2.24,2.24,0,0,0,.35-.28l.14-.13.07-.06s0,0,0,0,0,0,0,0,0,0,0,0,0-.08.06-.12l.14-.3,0-.08v0c.1-.25-.14.33-.12.26v-.13a3.73,3.73,0,0,0,.09-.84v-.44a3.78,3.78,0,0,0-.06-.47,9.81,9.81,0,0,0-1.61-3.84,13.11,13.11,0,0,0-3-3.17l-.42-.32-.44-.26-.44-.25L80.39,14a4.42,4.42,0,0,0-.84-.29l-.2-.06h-.11a.83.83,0,0,1-.21-.06s0,0-.07,0H78.8l-.33,0-.33,0h-.23l.26,0h-.06c-.34.09-.68.13-1,.25s-.69.21-1,.35a10.28,10.28,0,0,0-1,.44,24.75,24.75,0,0,0-4,2.44,58.19,58.19,0,0,0-7.48,6.75c-2.36,2.47-4.65,5.11-6.82,7.82-.64.83-2.94-.48-2.39-1.52a64.33,64.33,0,0,1,5.84-9.17,46.1,46.1,0,0,1,7.66-8,25.58,25.58,0,0,1,4.93-3.15,11,11,0,0,1,1.4-.61,14.15,14.15,0,0,1,1.47-.51c.5-.17,1-.25,1.56-.37l.09,0,.3,0h.23l.33,0,.33,0h.43c.37,0,.74.06,1.11.11.18,0,.37.05.54.09l.43.12a9.11,9.11,0,0,1,1.64.61l.77.37c.24.13.46.28.7.43l.68.44.63.5a17.13,17.13,0,0,1,4,4.69,14.06,14.06,0,0,1,2,6,8.06,8.06,0,0,1,0,.85l-.07.88A7.89,7.89,0,0,1,91,25l-.07.22v0c-.06.13.11-.26-.13.31l0,0,0,.07-.16.29-.11.17-.21.29a5.85,5.85,0,0,1-.45.54,2.53,2.53,0,0,1-.42.38l-.38.29a4.7,4.7,0,0,1-.73.47,14.67,14.67,0,0,1-2.83,1.21c-.92.29-1.82.53-2.73.72-1.8.4-3.59.68-5.38.91A184.21,184.21,0,0,1,56,32.05C54.78,32.05,54.82,31.23,55.93,31.12Z"/><rect class="cls-2" x="5.26" y="49.64" width="99.66" height="51.53"/><path class="cls-3" d="M69.85,84A3.16,3.16,0,1,0,70,77.68a3.12,3.12,0,0,0-3.26,3.16A3.08,3.08,0,0,0,69.85,84Z"/><path class="cls-3" d="M59.36,67.08a3.16,3.16,0,1,0,3.13,3.27A3.09,3.09,0,0,0,59.36,67.08Z"/><path class="cls-3" d="M73.11,59.67a3.11,3.11,0,0,0-3-3.22,3.14,3.14,0,0,0-3.31,3.12,3.17,3.17,0,0,0,6.34.1Z"/><path class="cls-3" d="M56.16,91.34a3.11,3.11,0,0,0,3.14,3.28,3.16,3.16,0,1,0,.06-6.32A3.11,3.11,0,0,0,56.16,91.34Z"/><path class="cls-3" d="M51.88,59.77a3.16,3.16,0,1,0-3.22,3A3.1,3.1,0,0,0,51.88,59.77Z"/><path class="cls-3" d="M37.94,94.62a3.16,3.16,0,1,0-3-3.24A3.1,3.1,0,0,0,37.94,94.62Z"/><path class="cls-3" d="M48.83,84a3.16,3.16,0,1,0-3.27-3.13A3.07,3.07,0,0,0,48.83,84Z"/><path class="cls-3" d="M59.47,52.16a3,3,0,0,0,3-2.52h-6.2A3.09,3.09,0,0,0,59.47,52.16Z"/><path class="cls-3" d="M91.21,56.45a3.17,3.17,0,1,0,3.12,3.12A3.08,3.08,0,0,0,91.21,56.45Z"/><path class="cls-3" d="M16.83,52.16A3,3,0,0,0,20,49.64h-6.2A3.1,3.1,0,0,0,16.83,52.16Z"/><path class="cls-3" d="M6.35,98.91a3.23,3.23,0,0,0-1.09.16v2.1h4A3,3,0,0,0,6.35,98.91Z"/><path class="cls-3" d="M80.42,52.16a3.09,3.09,0,0,0,3.24-2.52h-6.2A3.06,3.06,0,0,0,80.42,52.16Z"/><path class="cls-3" d="M77.39,91.39a3.17,3.17,0,1,0,3.33-3.09A3.1,3.1,0,0,0,77.39,91.39Z"/><path class="cls-3" d="M88,81a3.16,3.16,0,1,0,3.12-3.29A3.1,3.1,0,0,0,88,81Z"/><path class="cls-3" d="M80.53,67.08a3.16,3.16,0,1,0,3.19,3.21A3.08,3.08,0,0,0,80.53,67.08Z"/><path class="cls-3" d="M17,67.08a3.16,3.16,0,1,0,3,3.19A3.06,3.06,0,0,0,17,67.08Z"/><path class="cls-3" d="M70,98.91a3.1,3.1,0,0,0-3.12,2.26H73A3.06,3.06,0,0,0,70,98.91Z"/><path class="cls-3" d="M91.18,98.91a3,3,0,0,0-3,2.26h6A3.07,3.07,0,0,0,91.18,98.91Z"/><path class="cls-3" d="M48.69,98.91a3.06,3.06,0,0,0-3,2.26h6A3.05,3.05,0,0,0,48.69,98.91Z"/><path class="cls-3" d="M101.82,67.08a3.16,3.16,0,1,0,3.1,3.44v-.59A3,3,0,0,0,101.82,67.08Z"/><path class="cls-3" d="M101.66,52.16a3.05,3.05,0,0,0,3.22-2.52h-6.2A3.07,3.07,0,0,0,101.66,52.16Z"/><path class="cls-3" d="M27.43,98.91a3.1,3.1,0,0,0-3,2.26h6.07A3.09,3.09,0,0,0,27.43,98.91Z"/><path class="cls-3" d="M101.93,88.3a3.16,3.16,0,1,0-.29,6.32,3.08,3.08,0,0,0,3.28-2.87v-.58A3.05,3.05,0,0,0,101.93,88.3Z"/><path class="cls-3" d="M27.44,84a3.16,3.16,0,0,0,.11-6.32A3.16,3.16,0,1,0,27.44,84Z"/><path class="cls-3" d="M41.27,70.2a3.17,3.17,0,1,0-3.05,3.19A3.08,3.08,0,0,0,41.27,70.2Z"/><path class="cls-3" d="M37.88,52.16a3.09,3.09,0,0,0,3.32-2.52H35A3.08,3.08,0,0,0,37.88,52.16Z"/><path class="cls-3" d="M30.65,59.69a3.1,3.1,0,0,0-3-3.24,3.17,3.17,0,1,0-.31,6.33A3.09,3.09,0,0,0,30.65,59.69Z"/><path class="cls-3" d="M9.42,80.92a3.09,3.09,0,0,0-3.17-3.24,3.21,3.21,0,0,0-1,.17v6A2.91,2.91,0,0,0,6.1,84,3.07,3.07,0,0,0,9.42,80.92Z"/><path class="cls-3" d="M5.26,56.62v6a3.21,3.21,0,0,0,1,.16,3.17,3.17,0,0,0,0-6.33A3.41,3.41,0,0,0,5.26,56.62Z"/><path class="cls-3" d="M13.71,91.53a3.17,3.17,0,1,0,3.18-3.23A3.09,3.09,0,0,0,13.71,91.53Z"/><rect class="cls-2" y="30.58" width="110.18" height="19.06"/><rect class="cls-4" x="5.26" y="49.64" width="99.66" height="6.75"/><rect class="cls-5" x="48.84" y="30.58" width="12.49" height="70.59"/><text></text><path class="cls-5" d="M54.11,31.62A191.85,191.85,0,0,1,35,22.19c-1.55-.92-3.08-1.88-4.58-3-.76-.54-1.5-1.11-2.23-1.74A15,15,0,0,1,26,15.27a5,5,0,0,1-.49-.72l-.23-.42-.12-.2-.12-.31c-.07-.22-.14-.45-.2-.68l-.08-.34c0-.11,0-.12,0-.19l0-.33V12c0,.26,0-.38,0-.33V11.6l0-.23a8.32,8.32,0,0,1,.35-1.76l.29-.84A6.67,6.67,0,0,1,25.77,8,14,14,0,0,1,30,3.24,17.1,17.1,0,0,1,35.52.52l.77-.21L37.1.17c.27,0,.53-.09.81-.12l.85,0a9.65,9.65,0,0,1,1.76.1L41,.16,41.5.3c.36.1.71.21,1.06.34l.25.09L43,.81l.3.15.29.15.15.07,0,0h0l.26.15.08.06a15.81,15.81,0,0,1,1.28,1,13,13,0,0,1,1.16,1,13.53,13.53,0,0,1,1,1.12,26,26,0,0,1,3.28,4.85,45.25,45.25,0,0,1,3.83,10.43,62.37,62.37,0,0,1,1.63,10.74c.07,1.14-2.54,1.5-2.8.45-.87-3.35-1.9-6.68-3.07-9.9a57.1,57.1,0,0,0-4.17-9.17,24.64,24.64,0,0,0-2.75-3.85c-.26-.29-.51-.56-.78-.81a10.89,10.89,0,0,0-.81-.73c-.27-.25-.57-.42-.84-.63l-.06,0,.23.13h0l0,0-.15-.08-.29-.15-.29-.15-.15-.08h-.07a.52.52,0,0,1-.21,0l-.11,0-.21,0a4.25,4.25,0,0,0-.89-.06h-.48l-.5.06-.5.07-.52.12a12.85,12.85,0,0,0-4,1.75,9.73,9.73,0,0,0-3,2.9,3.3,3.3,0,0,0-.42.81,4.19,4.19,0,0,0-.25.81l0,.1h0c-.16-.12.36.29-.36-.27l.05,0,.11.07.21.16v.16s0,.15,0,.13l0,0a0,0,0,0,0,0,0s0,0,0,.09l.07.17a2,2,0,0,0,.22.39,10.91,10.91,0,0,0,1.39,1.74c.56.58,1.16,1.16,1.8,1.71,1.26,1.11,2.63,2.18,4,3.21a173.13,173.13,0,0,0,17.8,11.26C55.56,31.35,55.15,32.06,54.11,31.62Z"/></g></g></svg>