<svg xmlns="http://www.w3.org/2000/svg" viewBox="0 0 712.99 111.43"><defs><style>.cls-1{fill:#a71e2d;}.cls-2{fill:#f0a31f;}.cls-3{fill:#f4b53d;}.cls-4{fill:#b87d2b;}.cls-5{fill:#da1e38;}.cls-6{fill:#d14b64;}</style></defs><title>logo_outlines</title><g id="Layer_2" data-name="Layer 2"><g id="Layer_2-2" data-name="Layer 2"><path class="cls-1" d="M342.52,32a188.81,188.81,0,0,1-21.33-1.08c-1.78-.23-3.57-.5-5.38-.9-.9-.2-1.81-.43-2.73-.72a14.9,14.9,0,0,1-2.82-1.2,8.13,8.13,0,0,1-.74-.47l-.37-.29-.19-.15c-.06-.05-.15-.15-.23-.23s-.31-.35-.46-.54l-.2-.28A.88.88,0,0,1,308,26l-.17-.29,0-.07v0c.1.24-.15-.35-.12-.3l0-.05-.06-.22a7.92,7.92,0,0,1-.38-1.76l-.07-.88a8.06,8.06,0,0,1,0-.85,14,14,0,0,1,2-6,17.17,17.17,0,0,1,4-4.7l.62-.5.69-.44c.23-.15.46-.3.7-.44l.77-.37a8.94,8.94,0,0,1,1.65-.61l.43-.12c.17,0,.36-.06.54-.09.37-.05.75-.08,1.12-.11h.42l.33,0,.33,0H321l.3,0,.1,0c.52.13,1.06.21,1.55.38a13.53,13.53,0,0,1,1.48.5,14.77,14.77,0,0,1,1.4.61,26.11,26.11,0,0,1,4.93,3.16A45.07,45.07,0,0,1,338.36,21a62,62,0,0,1,5.76,9.21c.51,1-1.75,2.39-2.4,1.53C339.59,29,337.33,26.3,335,23.8A57,57,0,0,0,327.52,17a24.07,24.07,0,0,0-4-2.44,9.1,9.1,0,0,0-1-.44,10.59,10.59,0,0,0-1-.35c-.34-.12-.68-.16-1-.25h-.06l.25,0h-.23l-.33,0-.33,0h-.16s0,0-.07,0a.51.51,0,0,1-.2.06h-.12l-.2.06a4.28,4.28,0,0,0-.85.29l-.43.19-.44.26-.43.26-.43.32a13.12,13.12,0,0,0-3,3.18A9.89,9.89,0,0,0,311.78,22a4.13,4.13,0,0,0-.06.91,3.72,3.72,0,0,0,.1.84v.11h0c-.2-.05.44.13-.44-.11l.06,0,.13,0,.26.05.07.15s0,.14,0,.12a0,0,0,0,0,0,0,.08.08,0,0,0,0,0s0,0,.06.08l.14.13a2.25,2.25,0,0,0,.36.27,10.24,10.24,0,0,0,2,1,22.88,22.88,0,0,0,2.33.86c1.6.53,3.27,1,5,1.36a173.23,173.23,0,0,0,20.8,3.3C343.74,31.19,343.64,32,342.52,32Z"/><path class="cls-1" d="M344.24,31.12a171.11,171.11,0,0,0,20.81-3.3c1.69-.4,3.36-.85,5-1.37.8-.26,1.58-.56,2.32-.87a11,11,0,0,0,2-1,2.24,2.24,0,0,0,.35-.28l.14-.13.08-.06s0,0,0,0,0,0,0,0v0s0-.08.07-.12l.13-.3,0-.08v0l-.11.26v-.13a3.72,3.72,0,0,0,.1-.84v-.44A3.81,3.81,0,0,0,375,22a9.67,9.67,0,0,0-1.61-3.84,12.73,12.73,0,0,0-3-3.17l-.42-.32-.44-.26-.43-.25L368.7,14a4.19,4.19,0,0,0-.84-.29l-.2-.06h-.11a.66.66,0,0,1-.2-.06s0,0-.07,0h-.17l-.33,0-.33,0h-.23l.26,0h-.06c-.34.09-.68.13-1,.25s-.69.21-1,.35-.69.28-1,.44a25.18,25.18,0,0,0-4,2.44,58.19,58.19,0,0,0-7.48,6.75c-2.36,2.47-4.65,5.11-6.81,7.82-.65.83-2.94-.48-2.4-1.52a65.22,65.22,0,0,1,5.84-9.17,46.16,46.16,0,0,1,7.67-8A25.81,25.81,0,0,1,361,9.75a11.62,11.62,0,0,1,1.4-.61,13.56,13.56,0,0,1,1.48-.51,15.23,15.23,0,0,1,1.55-.37l.1,0,.29,0h.23l.33,0,.33,0h.43c.37,0,.74.06,1.11.11.18,0,.38.05.54.09l.43.12a8.84,8.84,0,0,1,1.64.61l.77.37c.24.13.47.28.7.43l.69.44.62.5a17,17,0,0,1,4,4.69,14.07,14.07,0,0,1,2,6,8,8,0,0,1,0,.85l-.07.88a7.89,7.89,0,0,1-.37,1.76l-.06.22v0c-.06.13.11-.26-.13.31l0,0,0,.07-.16.29a1.11,1.11,0,0,1-.11.17l-.2.29c-.15.19-.3.37-.46.54a2.53,2.53,0,0,1-.42.38l-.37.29a5.29,5.29,0,0,1-.74.47,14.6,14.6,0,0,1-2.82,1.21q-1.38.44-2.73.72c-1.81.4-3.6.68-5.39.91a184,184,0,0,1-21.32,1.09C343.1,32.05,343.13,31.23,344.24,31.12Z"/><rect class="cls-2" x="293.57" y="49.64" width="99.66" height="51.53"/><path class="cls-3" d="M358.16,84a3.16,3.16,0,1,0,.19-6.32,3.16,3.16,0,1,0-.19,6.32Z"/><path class="cls-3" d="M347.67,67.08a3.16,3.16,0,1,0-.05,6.31,3.16,3.16,0,1,0,.05-6.31Z"/><path class="cls-3" d="M361.42,59.67a3.17,3.17,0,1,0-3.3,3.11A3.1,3.1,0,0,0,361.42,59.67Z"/><path class="cls-3" d="M344.47,91.34a3.12,3.12,0,0,0,3.15,3.28,3.16,3.16,0,0,0,.05-6.32A3.11,3.11,0,0,0,344.47,91.34Z"/><path class="cls-3" d="M340.19,59.77a3.16,3.16,0,1,0-3.22,3A3.1,3.1,0,0,0,340.19,59.77Z"/><path class="cls-3" d="M326.25,94.62a3.16,3.16,0,1,0-3-3.24A3.09,3.09,0,0,0,326.25,94.62Z"/><path class="cls-3" d="M337.14,84a3.16,3.16,0,0,0,0-6.32,3.16,3.16,0,1,0,0,6.32Z"/><path class="cls-3" d="M347.78,52.16a3,3,0,0,0,3-2.52h-6.2A3.09,3.09,0,0,0,347.78,52.16Z"/><path class="cls-3" d="M379.53,56.45a3.17,3.17,0,1,0,3.11,3.12A3.09,3.09,0,0,0,379.53,56.45Z"/><path class="cls-3" d="M305.14,52.16a3,3,0,0,0,3.14-2.52h-6.19A3.08,3.08,0,0,0,305.14,52.16Z"/><path class="cls-3" d="M294.66,98.91a3.23,3.23,0,0,0-1.09.16v2.1h4A3,3,0,0,0,294.66,98.91Z"/><path class="cls-3" d="M368.73,52.16A3.08,3.08,0,0,0,372,49.64h-6.2A3.06,3.06,0,0,0,368.73,52.16Z"/><path class="cls-3" d="M365.71,91.39A3.17,3.17,0,1,0,369,88.3,3.09,3.09,0,0,0,365.71,91.39Z"/><path class="cls-3" d="M376.33,81a3.16,3.16,0,1,0,3.12-3.29A3.1,3.1,0,0,0,376.33,81Z"/><path class="cls-3" d="M368.84,67.08a3.16,3.16,0,1,0,3.2,3.21A3.1,3.1,0,0,0,368.84,67.08Z"/><path class="cls-3" d="M305.32,67.08a3.16,3.16,0,1,0,3,3.19A3.06,3.06,0,0,0,305.32,67.08Z"/><path class="cls-3" d="M358.34,98.91a3.09,3.09,0,0,0-3.11,2.26h6.06A3.08,3.08,0,0,0,358.34,98.91Z"/><path class="cls-3" d="M379.49,98.91a3,3,0,0,0-3,2.26h6.05A3.06,3.06,0,0,0,379.49,98.91Z"/><path class="cls-3" d="M337,98.91a3.06,3.06,0,0,0-3,2.26h6.05A3.07,3.07,0,0,0,337,98.91Z"/><path class="cls-3" d="M390.14,67.08a3.16,3.16,0,1,0,.1,6.31,3,3,0,0,0,3-2.87v-.59A3,3,0,0,0,390.14,67.08Z"/><path class="cls-3" d="M390,52.16a3.05,3.05,0,0,0,3.22-2.52H387A3.09,3.09,0,0,0,390,52.16Z"/><path class="cls-3" d="M315.75,98.91a3.1,3.1,0,0,0-3,2.26h6.07A3.08,3.08,0,0,0,315.75,98.91Z"/><path class="cls-3" d="M390.25,88.3a3.16,3.16,0,1,0-.3,6.32,3.07,3.07,0,0,0,3.28-2.87v-.58A3,3,0,0,0,390.25,88.3Z"/><path class="cls-3" d="M315.75,84a3.16,3.16,0,1,0,.11-6.32,3.16,3.16,0,1,0-.11,6.32Z"/><path class="cls-3" d="M329.58,70.2a3.17,3.17,0,0,0-6.33.06,3.11,3.11,0,0,0,3.28,3.13A3.08,3.08,0,0,0,329.58,70.2Z"/><path class="cls-3" d="M326.19,52.16a3.11,3.11,0,0,0,3.33-2.52h-6.2A3.08,3.08,0,0,0,326.19,52.16Z"/><path class="cls-3" d="M319,59.69a3.17,3.17,0,1,0-3.32,3.09A3.12,3.12,0,0,0,319,59.69Z"/><path class="cls-3" d="M297.74,80.92a3.09,3.09,0,0,0-3.17-3.24,3.22,3.22,0,0,0-1,.17v6a3,3,0,0,0,.84.16A3.09,3.09,0,0,0,297.74,80.92Z"/><path class="cls-3" d="M293.57,56.62v6a3.21,3.21,0,0,0,1,.16,3.17,3.17,0,0,0,0-6.33A3.42,3.42,0,0,0,293.57,56.62Z"/><path class="cls-3" d="M302,91.53a3.17,3.17,0,1,0,3.18-3.23A3.1,3.1,0,0,0,302,91.53Z"/><rect class="cls-2" x="288.31" y="30.58" width="110.18" height="19.06"/><rect class="cls-4" x="293.57" y="49.64" width="99.66" height="6.75"/><rect class="cls-5" x="337.16" y="30.58" width="12.49" height="70.59"/><text></text><path class="cls-5" d="M342.43,31.62a189.74,189.74,0,0,1-19.15-9.43c-1.55-.92-3.09-1.88-4.59-3-.75-.54-1.49-1.11-2.22-1.74a14.56,14.56,0,0,1-2.12-2.22,5,5,0,0,1-.49-.72l-.23-.42-.11-.2a1.83,1.83,0,0,1-.12-.31c-.08-.22-.15-.45-.21-.68l-.08-.34c0-.11,0-.12,0-.19l0-.33V11.6l0-.23a7.74,7.74,0,0,1,.35-1.76l.28-.84c.1-.27.25-.51.37-.76a14,14,0,0,1,4.2-4.77A17.1,17.1,0,0,1,323.83.52l.77-.21.81-.14c.27,0,.54-.09.81-.12l.85,0a9.65,9.65,0,0,1,1.76.1l.45.05.53.14c.36.1.72.21,1.07.34l.24.09.15.08.29.15.3.15.15.07,0,0h0l.26.15.08.06a15.81,15.81,0,0,1,1.28,1,13,13,0,0,1,1.16,1c.38.36.72.74,1.05,1.12a26,26,0,0,1,3.27,4.85A45.25,45.25,0,0,1,343,19.82a63.38,63.38,0,0,1,1.64,10.74c.06,1.14-2.55,1.5-2.81.45-.87-3.35-1.89-6.68-3.07-9.9a56.24,56.24,0,0,0-4.17-9.17,24,24,0,0,0-2.75-3.85,10,10,0,0,0-.78-.81,9.2,9.2,0,0,0-.81-.73,9.68,9.68,0,0,0-.84-.63l0,0,.22.13h0l0,0-.14-.08-.3-.15-.29-.15-.15-.08h-.07a.52.52,0,0,1-.21,0l-.11,0-.21,0a4.2,4.2,0,0,0-.89-.06h-.47l-.5.06-.51.07-.51.12a12.8,12.8,0,0,0-4,1.75,9.73,9.73,0,0,0-3,2.9,3.68,3.68,0,0,0-.42.81,3.56,3.56,0,0,0-.24.81l0,.1h0c-.16-.12.36.29-.36-.27l.06,0,.1.07c.07.06.16.11.21.16v.16s0,.15,0,.13l0,0a.06.06,0,0,0,0,0s0,0,0,.09l.08.17a1.57,1.57,0,0,0,.22.39,9.89,9.89,0,0,0,1.39,1.74A24.37,24.37,0,0,0,321,16.31c1.27,1.11,2.63,2.18,4,3.21a175.32,175.32,0,0,0,17.8,11.26C343.87,31.35,343.46,32.06,342.43,31.62Z"/><path class="cls-6" d="M11.67,65.68c-.07-.58.29-.36-.51-.22v-.72c.65-.21.65-.64.94-1.65l-.58.21c.22-.93-.07-.64.22-1.08l.29-.28c.5-.44.43-.36.07-.87l-.22-.21c.36-.15.15-.08.72-.15,0-1.22-.14-.65-.36-1.29.44-.58.29-.15.8-.72-.58-.22-.29.36-.44-.58L13,56c.21-1,.5-2,.64-2.88.72-3.09.58-1.65,1-2.59.36-.72-.07-.36.07-1.37s.51-.79-.14-1c.36-.5.43-.28.58-.5.28-.65-.87-.15.93-1.3-.79-1.58,0-.5,0-2.23,1.37.07.15.07,1.3-.22-.15-1.29.07,0-.72-.36a1.47,1.47,0,0,0,.36-1.08,17.63,17.63,0,0,0-3.24-.5,57.41,57.41,0,0,0-7.78-.58c-1.44.15-.36.72-1.8,1.59a6.31,6.31,0,0,1-3.6,1.22c-.72-.07-.72-.14-.57-.79.79-3.82-.44-3.82,5-5.83A18.79,18.79,0,0,1,9.65,37l10.16-.07c2.66,0,4.32.29,7.05.21h.72C31.76,36.88,33.27,37,38,35.8l6.77-2.23c2.09-1.16.22,1.51-.43,2.16a47.15,47.15,0,0,1-5.26,4.46l-.72.43-1.22.58c-.51.21-.58.36-1.08.57-4.75,2.31-9.94.65-12.6,1.23a9.64,9.64,0,0,1-.07,2,4.68,4.68,0,0,0-.22,1.52c.07,2-.58,1.08-.29,3,.29,2.16-.14,1.37-.07,3.17l.22,1.44c.07.58-.08.86-.65,1v.72c1.58.14.5,2.16.21,3H23c-.07,1-.28.65-.07,1.37.29.93.29.07.29.93,0,1.44-.43,1.23-.43,2.52l-.22.08c-.07,0-.07,0-.36.14.36.5.58.5.22,1.22.86-.14.29-.14.57,0a5.71,5.71,0,0,1-.79,3.24c-.14.51.51.73.51.65h.07c0,.87-.15.79-.15,1.52-.93-.08-.43-.29-.93,0,.14.43-.43.28.72.35a5.05,5.05,0,0,1-.29,1.88c-.22.72-.29-.07-.14.79.21,1.44.43-.43.21,2.23-.07.87.22.58.36,1.37.29,1.51-.14,4.39,1.15,6.77,1.3-.29,1.66-.29,1.66,1.29a15.84,15.84,0,0,1-4.75,2.24,4.87,4.87,0,0,1-1.08.28,6.87,6.87,0,0,1-5.76-1.65,5.13,5.13,0,0,1-1.37-2.23v-.08c-.22-.5,0-.36-.65-.57a3.75,3.75,0,0,1,.36-1.3,3.24,3.24,0,0,1-.94.22,6.44,6.44,0,0,1-.28-2.74c0-.43.14-.43.28-.93a2.14,2.14,0,0,1-.72.14,9.39,9.39,0,0,1-.43-3.1c0-3,.36.22.58-3.52,0-.44-.07.07.07-.36.29-1.37-.22-.51,0-1.59v-.29c.14-.64-.14-.5.36-1.37l.07-.07.43-.36c-.79-.07-.72-.14-.72-.93.58-.22.15.21.51-.58C11.67,66.18,11.74,66,11.67,65.68Zm5.76,2.59c-.51.29-.51.15-.58.94C17.57,68.85,17.36,69.35,17.43,68.27Z"/><path class="cls-6" d="M49.76,88.72c.28-1,.14-2.45.36-3.6s.07-.65.64-1.44c-.57-.14-.28.15.08-1.29l.28-1.3c.15-2,1.44-4.46,2-6.34a2.28,2.28,0,0,1,.36-.86l.72-1.73c.58-1.37.94-3,1.58-4.25l.36-.65,1.3-2.8.14-.36c0-.08.08-.08.08-.15,1.65-3.09-1.23-1-2.24-.65-1.22.44-1.08.15-3.89,3.17a4.18,4.18,0,0,0-.86,1.08c-.22.36-.14.51-.36.87-.79,1.65-1.37.72-1.87,3.09l-.87,2.16a3.24,3.24,0,0,0-.28.72c-.58,1.52-1.52,8.21-2.31,9.44-1.87,0-.29-1-3-.51-1.59.29-2.52.15-3.24-1.29a2,2,0,0,1-.22-.72,3.1,3.1,0,0,1-.36-1.52c-.14-.86-.36-.57-.29-1.58l-.21-4.54c-.07-1.36,1.22-7,1.22-8.28A3.18,3.18,0,0,1,39.1,64l.14-1.37c.08-1.22.72-3.38.94-4.53l1.51-6.19c.15-.94.43-1.16.58-2.24l.65-2.8C43.64,44.44,44,41.7,45,39.47a5.19,5.19,0,0,0,.94-2.81A3,3,0,0,1,49.25,38l.29.36a5.09,5.09,0,0,1,1.3,4.39l-.22.79c0,.08,0,.08-.07.15l-1.37,5.76c.07.58.22.58,0,1.08l-.14.58c-.15.79.07,1.08-.08,1.72l-.72,4.25c-.28,1.23-.21,2.52-.5,3.67-.14.65,0,1.23-.29,1.73a23.83,23.83,0,0,0-.72,3.39c-.07.36-.07.21-.21.5a4.8,4.8,0,0,0-.44,2.16c.29-.29,0,0,.22-.36a38.34,38.34,0,0,1,2.88-3.89,12.21,12.21,0,0,1,3.74-3.38l1.95-1.15a9.1,9.1,0,0,1,3-1.16c.29,0,.8-.07,1.08-.07l3,.07c1.8.36,1.87.94,2.52,2.31a2.73,2.73,0,0,1,0,2.37,14.47,14.47,0,0,1-.43,2c-.65,1.44-.8,3.24-1.3,4.68a6.45,6.45,0,0,0-.14,1.15c-.08.08-.08.44-.08.44a1.38,1.38,0,0,0-.07.28l-.57,1.8a35.57,35.57,0,0,1-.8,4c-.07.36-.21.58-.28.87a13.33,13.33,0,0,0-.51,2.3l-.36,1-.36,1.94a11,11,0,0,0-.5,2.74v.43l-.43,2.81c.07.86-.29,1.3-.29,2l.07,1.43c.36,1.52-.22,4.33,2.23,2.38a11.08,11.08,0,0,0,2-2.09L66,87.86a46.63,46.63,0,0,0,3.6-7.49,1.31,1.31,0,0,1,.29-.5l.29-.58c.28-.65.07-.5.64-.79l.22.21c.29.72-.07.94,0,1.3s-.07-.22.07.36c.29,1.37-3,8.93-3.74,10.22-1.37,2.6-1.8,4-4,6.2a.07.07,0,0,0-.07.07s-.08,0-.08.07l-.36.36-.43.51-1.73,1.65a19.13,19.13,0,0,1-2.37,1.37l-.65.36a3.83,3.83,0,0,0-.79.22,11.49,11.49,0,0,1-3.89-.36,3.21,3.21,0,0,1-1.51-.58l-.15-.07c-.36-.22-.65-1.73-.72-2.38C50.84,97.72,49.32,90.45,49.76,88.72Zm1.36,10.59c.29-.36.22-.22-.14-.36Zm.36.65.29-.15C52.64,99.6,50.62,98.59,51.48,100Zm0,.36c.29-.29.08-.15-.21-.29ZM52,98.37c-.15-.07-.58,0-.15-.72-.86.29-.43.07-.36.51l-.07.5Zm.5,1.15v-.14c-.14,0-.21-.07-.21-.14-.29.07-.15.14,0,.36Zm.51.94c-.22-.07-.58,0-.15-.72-.93.29-.43.07-.5.5v.51Zm.36-1.87c-.22-.15-.58-.07-.22-.79-.86.28-.36.07-.36.5v.5Zm.36.79a.56.56,0,0,1-.29.14l.22-.57c-1,.36-.44.14-.44.57V100Zm.57,1.3c-.14-.08-.57,0-.14-.8-.94.29-.43.08-.5.51v.5Z"/><path class="cls-6" d="M87.85,68.49c-.51,1.08-2.38,1.94-3.32,2.66A12.94,12.94,0,0,1,83,72.52l-.58.43c-.28.29-.21.36-.43.65s-.79.51-1.15.87-.15-.15-.22.57c-.79.15-.29.36-2.09,1.59-.86.64-1.44.86-1,2a6.85,6.85,0,0,0,1.65,3.1c.94.93,2.67.65,4,.36a8,8,0,0,0,1.44-.43c4.17-1.59,5-2.45,8.42-5.76l.22-.15.07-.07,5.25-5.33.44-.43a19.94,19.94,0,0,1,1.72-1.8l2.81-2.59c.43-.36.51-.51,1.08-.58.22.79.29.36-.07,1.08l-2.88,4s0,.08-.07.08,0,.07-.07.14l-.8,1a30.73,30.73,0,0,1-2.52,2.88l-1.29,1.37a3,3,0,0,0-.65.72c-.36.43-.14.43-.86.5-.08.72-.51.94-.94,1.37l-3.6,3.24a9.8,9.8,0,0,1-1.3,1,8.63,8.63,0,0,1-1.36.79A12.6,12.6,0,0,1,85,84.47v.36l1.16-.36c-.36.51-.65.51-1.51.51a10.12,10.12,0,0,0-1.66.36,24,24,0,0,1-5.26.5,10.58,10.58,0,0,1-5.9-1.8,19.51,19.51,0,0,1-3-3.6l-.58-1a12.33,12.33,0,0,0-.5-1.44,3.92,3.92,0,0,1-.58-1.94,33.46,33.46,0,0,1,.07-3.82c0-.5-.14-.36-.14-1,0-.22.29-.37.43-.8l.14-.86c.58-2,1.37-2.52,2.24-4l3-3.53a13.94,13.94,0,0,1,4.89-3.46c1.23-.57,4.9-1.8,6.12-1.65a13.65,13.65,0,0,0,1.73-.07c1.08,0,3.17.5,3.75,1.44l.86,1.72a7.47,7.47,0,0,1,.43,2A13.87,13.87,0,0,1,90,65.32c-.58.58-1.52,1.22-1.52,2,0,.36.08.36.15.28C88.64,68,88.06,67.91,87.85,68.49Zm-9.22,5a10.72,10.72,0,0,1,1.29-1.23l1.37-1.15a13.74,13.74,0,0,0,1.37-1c1.3-1.29,1.3-.93,1.87-1.8l.58-.65c1.08-1.08,1.37-1.65.36-3.16a3.36,3.36,0,0,0-1.3.36A2.23,2.23,0,0,1,83,65.1v.51c-1.08.07-1.44.72-2.16,1.08s-.51,0-.87.79c-.93,2.09-1.36,1.15-1.8,3-.57,2.31-.72-.14-.72,2.09,0,.51-.28.36-.28,1,0,.14.07.5.07,1Z"/><path class="cls-6" d="M124.35,47.82l.5-1.37c.51-1.08.72-.93,1.08-1.58.29-.5.29-.72.58-1.15l1.58-1.95c.22-.28.07-.14.22-.28l3.81-3.32c.58-.43,1-.43,1.44-.79l.29-.29.29-.14,1.15-.65c.65-.36.15-.43.94-.79l3-.86.29-.15a1.94,1.94,0,0,0,.58-.21c1.72-.87,2.08-.08,3.45-.51a13.91,13.91,0,0,1,3.39-.14,3.63,3.63,0,0,1,2.52.79c.93.79.86,1.22,1.29,2.45a2.36,2.36,0,0,1-.86,2.52c-.29.21-.22.07-.43.36l-.72-.36c-1.3-.51-.43-1.37-2.88-.65a7.77,7.77,0,0,0-3.24,1.44l-5.19,4.18c-.36.43-.65.72-1.15.64-.14,1.52-.79,1.16-1.51,2.45a2.55,2.55,0,0,1-.43.72l-.8,1.08c-.36.44-.14.65-.36,1s-.14.07-.28.22c-.36.29-.22.43-.36.93l-.15.29c0,.15,0,.07-.07.29l-.58,1.15c0,1.15,0,1.08-.64,1,.07.58.21.36.14.65-.14.65-.14,0-.29.43v.58a7.09,7.09,0,0,1-.14.79c-.22,2.09-.51,1.58-.36,2.3-.51-.21-.51-.14-.58-.65l-.57-.14c.79,1.66.57.65.86,1.37l.14,1.15a5,5,0,0,0,.08,1.44l.5,2.16.14.58,1.44,3.45a.07.07,0,0,0,.08.07l.57.73h.07c.44.43,1.66,2,3,1.87l1.65-.36c.22-1.23.58-2.09.65-2.74.07-.22,0-.36.07-.79.22-.22.22-.07.07-.29l.22-1.15.07-.29c.22-.29,0,.14.22-.22a4.06,4.06,0,0,0,.29-.93l.14-.87c.07-.28.07-.07.14-.21l.94-2.52c.22-.65.5-.72.72-1.15s0-.22.36-.87l.58-.72c.29-.36.29-.14.36-.72h-1.3c-.07.07-.65.07-.65.15l-.36.07c-.65.29-4-.58-4.68-1l-.07-.07-.36-.29a2,2,0,0,1-1-1.37,2.1,2.1,0,0,1,2-.65l9.21-.43c.8,0,.51.15,1.16.22l1.08-.22a2.45,2.45,0,0,1,1.08.36,11.18,11.18,0,0,0,3.24.58,1,1,0,0,0,.21.93c-.5.08-.79.72-1.44.94a6.88,6.88,0,0,1-1.44.5l-.21,1.37c-.29.79-.43.07-.43,1,0,.5.14.5,0,1.08s-.29.79-.36,1.15c-.22.94-.72,3.89-1,4.54s-.29,1.51-.51,2.23a25.73,25.73,0,0,0-.5,3.46l-.43,4a14.06,14.06,0,0,0-.22,2.38,37.87,37.87,0,0,0-.65,5.68c.15,2.16-.14,3.53.43,5.84l.37.93c.57,2,1.65,2,2.16-.07.93.07,1.44-.29,1.51.94.07,1-.43,1-.94,1.51l.65-.07c-.94,1.08-1.87.79-2.38,1.37.29.07.58.21.51.5-.22.86-1.95.07-2.59.07-1.88,0-5,.94-6.85-1.87-1.15-2-1.15-3.6-1.58-5.69-.22-.94-.07-1.87-.36-2.74-.22-.57-.29.15-.14-.72.07-.64.43-.93.28-1.58s-.14-.14-.14-.86a14.35,14.35,0,0,0,.36-3l-.07-.07.21-1.08c.44-1.3,0-.65.08-1.73l-2.38.51H134s-.08,0-.08.07h-.14a8.72,8.72,0,0,1-3.6-.29A12.8,12.8,0,0,1,126,73.31a11.83,11.83,0,0,1-2.08-2.23c0-.07,0-.07-.08-.14l-1.22-2.24a.71.71,0,0,1-.07-.21l-.72-1.37a8.3,8.3,0,0,1-.65-2.3c0-.29-.07-.65-.07-.94l-.36-4.18c0-.64.14-4,.57-4.32.29-.14.29.22.65.44L122,55c-.43.15-.14.15-.79.08a11.29,11.29,0,0,1,.36-1.08c.58.14.36.43.65-.08l-.65-.07.36-1.08a3.66,3.66,0,0,1,.36-.93C122.91,50.42,123.77,49.34,124.35,47.82Zm-2.74,8.86c.14,0-.07-.36-.14,0S121.61,56.68,121.61,56.68Zm6.7,5.11h.14a3.78,3.78,0,0,0,.07-1.58c-.07-.43,0-.07-.14-.29A18.67,18.67,0,0,1,128.31,61.79Zm.14,1.59c.22,0,0-.44-.07,0S128.45,63.38,128.45,63.38Zm.29-4c0-.22-.14-.58-.22-.15C128.52,59.34,128.6,60,128.74,59.42ZM129,58a.4.4,0,0,0-.29-.08l.07.15.51.07Zm.79-.15c.43.22.07-.21-.14-.07S129.82,57.83,129.82,57.83Zm-.07,6.41a.07.07,0,0,0-.07-.07A.07.07,0,0,0,129.75,64.24Zm.79-11.59c.14,0-.07-.36-.07,0S130.54,52.65,130.54,52.65Zm.94-1.73c.07-.07.36,0,0-.22s-.36.15-.36.51Zm.43-.94c.43.08.21,0,.36-.07-.29-.5.07-.29-.58-.21C131.62,50.27,131.62,49.84,131.91,50Zm.43,1.23c.14,0-.07-.43-.14,0S132.34,51.21,132.34,51.21Z"/><path class="cls-6" d="M153.15,59.27a9.33,9.33,0,0,1,.65-1.58A22.93,22.93,0,0,0,155,55.38a3.16,3.16,0,0,1,.14-.86c.8,0,.94,0,1,.79.43-.36.43-.21.51-.86.57,0,.28,0,.64.14a4.57,4.57,0,0,1,2.52,1.59l.51.93c.21.43.14.15.21.43.51,1.16.08,1.8.44,3.17a26.34,26.34,0,0,0,2.08-1.94,13.77,13.77,0,0,1,1.16-.79,10,10,0,0,1,4.53-1.52,4.67,4.67,0,0,1,1.37.22,8.65,8.65,0,0,1,1.44.43c1.37.51,2.81,1.08,3.53,2.38s.86,1.65.14,3.09l-.43.65c-.5.79-.36.87-1.44,1a2.86,2.86,0,0,1-1.51-.14c-.07-1.73,1.3-2.38-.51-3.46-2.8-1.73-3.31-.29-5.32,1.22a12.21,12.21,0,0,0-2.6,3.17l-.5.79c-.07,0-.07.08-.07.08l-.51.5a4.91,4.91,0,0,0-.64,1.51c-.15.58-.29,1.23-.51,1.87-.21,1-.43.65-.65,1.59s-1.08,5.18-.86,5.83a3.54,3.54,0,0,1,.29,2c-.79.07-.65.07-.87.72s.08,1.94-.21,2.66c-.22.87-.15,2.16-1.44,2.81-1.66.79-1.66.14-2.16-.22s-.79-.14-1.15-.36a8.47,8.47,0,0,1-2.16-1l-.51-.51c-1.22-1.37-.72-3.38-.79-4.25a6.42,6.42,0,0,1,0-2.66,8.9,8.9,0,0,0,0-1.37l.43-3.31a3.81,3.81,0,0,0,.29-1.22c.07-.65-.07,0,.07-.58l.22-.5,1.58-5.69c.29-.87.58-1.37.79-2.24s.65-1.65.29-2.3a7.87,7.87,0,0,0-1.44,2.38l-.36.72c-.14.28-.14.64-.57.72-.8.28-.15-.29,0-.51.28-.5.14-1.08.5-1.51A15.21,15.21,0,0,1,153.15,59.27Z"/><path class="cls-6" d="M194.84,68.49c-.51,1.08-2.38,1.94-3.32,2.66a12.94,12.94,0,0,1-1.58,1.37l-.58.43c-.28.29-.21.36-.43.65s-.79.51-1.15.87-.14-.15-.22.57c-.79.15-.28.36-2.08,1.59-.87.64-1.44.86-1,2a6.85,6.85,0,0,0,1.65,3.1c.94.93,2.67.65,4,.36a7.71,7.71,0,0,0,1.44-.43c4.17-1.59,5-2.45,8.42-5.76l.22-.15.07-.07,5.26-5.33.43-.43a18.7,18.7,0,0,1,1.73-1.8l2.8-2.59c.44-.36.51-.51,1.08-.58.22.79.29.36-.07,1.08l-2.88,4s0,.08-.07.08,0,.07-.07.14l-.79,1a32.26,32.26,0,0,1-2.52,2.88l-1.3,1.37a3,3,0,0,0-.65.72c-.36.43-.14.43-.86.5-.07.72-.51.94-.94,1.37l-3.6,3.24a9.8,9.8,0,0,1-1.3,1,8.63,8.63,0,0,1-1.36.79A12.68,12.68,0,0,1,192,84.47v.36l1.15-.36c-.36.51-.65.51-1.51.51a10.35,10.35,0,0,0-1.66.36,24,24,0,0,1-5.26.5,10.58,10.58,0,0,1-5.9-1.8,19.92,19.92,0,0,1-2.95-3.6l-.58-1a12.33,12.33,0,0,0-.5-1.44,4,4,0,0,1-.58-1.94,33.46,33.46,0,0,1,.07-3.82c0-.5-.14-.36-.14-1,0-.22.29-.37.43-.8l.14-.86c.58-2,1.37-2.52,2.24-4l3-3.53a13.88,13.88,0,0,1,4.9-3.46c1.22-.57,4.89-1.8,6.12-1.65a13.57,13.57,0,0,0,1.72-.07c1.08,0,3.17.5,3.75,1.44l.86,1.72a7.47,7.47,0,0,1,.43,2,13.87,13.87,0,0,1-.64,3.24c-.58.58-1.52,1.22-1.52,2,0,.36.08.36.15.28C195.63,68,195.05,67.91,194.84,68.49Zm-9.22,5a10.81,10.81,0,0,1,1.3-1.23l1.36-1.15a13.74,13.74,0,0,0,1.37-1c1.3-1.29,1.3-.93,1.87-1.8l.58-.65c1.08-1.08,1.37-1.65.36-3.16a3.36,3.36,0,0,0-1.3.36,2.23,2.23,0,0,1-1.22.28v.51c-1.08.07-1.44.72-2.16,1.08s-.5,0-.86.79c-.94,2.09-1.37,1.15-1.8,3-.58,2.31-.72-.14-.72,2.09,0,.51-.29.36-.29,1,0,.14.07.5.07,1Z"/><path class="cls-6" d="M216.29,58.62c.29-.14.07-.07.36-.07.94-.07,1.08-.43,2.16-.43l.22.43c.5.87.5-.5,1.73.07l-.51-.86h1c.72,3,.58.36.58.07.57-.21.43.87.5-.07a17.66,17.66,0,0,0,1.87.29,2,2,0,0,1,1.44.57,1.73,1.73,0,0,1,1.08-.79,1,1,0,0,1,.44.07c3.45.36,4,.08,4,3.53,0,1.8-.51,2-1.16,4.18l-.21.5-1.08,2.81a38.33,38.33,0,0,0-1.15,4.61c-.08.29-.08.72-.15,1.22a10.27,10.27,0,0,0-.14,4.9c.29,1.3.65,3.1,1.58,4a2.35,2.35,0,0,0,3.17.43l1.3-.79c.07-.07.07-.07.14-.07l7.7-7.42c.36-.36.58-.43.94-.79a9.32,9.32,0,0,0,1-1.37l.21.08.08.57.36-.57.29.07-.15.65a2.15,2.15,0,0,0-.14.57,4.08,4.08,0,0,0-.79,1.08,16.73,16.73,0,0,1-2.53,3.39,7.82,7.82,0,0,0-.64.79c-1.08,1.58-2.74,2.45-4,3.81l-.07.08c-.07.07-.07.07-.07.14a9.31,9.31,0,0,1-2.81,1.94,4.44,4.44,0,0,1-1.94.36c-1.23-.07-1.15.29-2.09.36-.72.08-.29-.14-1.15,0a2.22,2.22,0,0,1-.94.15,6.34,6.34,0,0,1-2.09-.22,7.57,7.57,0,0,1-4.39-3,.07.07,0,0,0-.07-.07l-.43-.8a12,12,0,0,1-.87-1.94c-1.15,0-.64.07-1.44.5-2.37,1.59-5.76,2.67-8.57,1.66a10.34,10.34,0,0,1-4.68-2.88l-.28-.29-.72-1.37a6.2,6.2,0,0,1-.65-5.18,24.28,24.28,0,0,1,2.37-5.83.24.24,0,0,0,.08-.15L208.37,64a9.84,9.84,0,0,1,2.95-1.87c-.72-.36,1.37-1.94,2-2.09a2.36,2.36,0,0,1,1.66-.72C215.14,58.84,215.07,59.13,216.29,58.62Zm-5.54,16.85c-.15.65-.51,1.73.07,2.16.94.72.07,1.16,1.08,2.16a3.72,3.72,0,0,0,3.31.8c.58-.15.15-.08.65-.22l1.58-1a2.67,2.67,0,0,1,1.08-.72,7.61,7.61,0,0,1-.07-3.09,19.34,19.34,0,0,1,.43-3.53L219,72V71.8l1.44-4.18c.57-1.15,2.37-4.1,2.37-4.82-.72.5-1.51.65-2.37,1.15-3.82,2.31-4.54,2.45-5.33,3.6l-1.37,2,.65.36-.65.21c-.22.22-.07.15-.14.29v.15c-.08.64-.08.21-.51.79.87.14.51-.29.65.29-1.44,0-.65-.08-1.15.5-.15.22,0,.14-.36.29-.72.29-.22.07-.36-.07-1.66.86-.87.5-.79.79,0,0,.79.21-.22.21-.58.08-.79-.28-.58.44a5.8,5.8,0,0,1,1.08-.15c.65,0,.72,0,.87.51-1.08,0-.51-.15-.72.28-.51.22-.36-.28-.22.58,1.15-.43-.5.5.94.14v.58c-.87.22-.58.43-.36,1.15-.43-.14-.43.29-.58-1.37Z"/><path class="cls-6" d="M240.05,79.07c-.07-.64-.29-1.15-.29-1.72,0-.36.29.14-.14-.72a4.72,4.72,0,0,1,0-1.73c.07-.58.22,0,0-.58s-.5-.14-.22-1.22V71.44l.36-2.66V68.7l1.44-6.33c.15-.51.08-.15.29-.58s0-.21.07-.5c.22-1.23,1.16-2.31,1.23-3.39.07-.57.65-1.94,1.08-3.38a21.25,21.25,0,0,0,.43-2.45c-.5,0-.43-.07-.43-.07a18.16,18.16,0,0,0-3.39.07l-.21.07h-.36a6,6,0,0,1-1.66.22,2.74,2.74,0,0,1-1.94-2.09c0-.57.14-.79.65-.93a7.7,7.7,0,0,1,1.08-.15c1.87-.14,1.58-.65,3.52-.5,1,.07.44-.22,1-.22h3.17c0-.94.36-.57.5-1.58l.22-1.3v-.14l1.66-4.4V41l.72-1.8c.57-1.08.07-2.16,1.51-2.52l1.08,1.08c.22.22.36.22.58.51a9.22,9.22,0,0,1,.72,1.36c.36.65.93,1.3.86,2-.07.94.14.94-.07,1.73a1.76,1.76,0,0,1-.07.29l-.58,1.44a7.26,7.26,0,0,0-.58,2c-.07.43-.21.29-.21.8,0,.79,1.37.36,1.73.14l.43-.29c.65.58,0,.36,1.15.36l4.9-.79a22.35,22.35,0,0,1,2.3-.43v.72c-.65.07-.22.07-.72.29l-.79.21c-.51.22-.43.43-.87.58-.93.36-2.08.93-3,1.29h-.07l-2.45.94a7,7,0,0,1-1.51.5l-1.51.36c-.08.29-.29,1.52-.65,2.81-.07.22-.36.22-.43.43s0,.94-.08,1.23l-.65,2.37L249.41,60c-.14.72-.5.36-.72,1.23l-.36,2.59c-.07.86.15.57-.14,1.51-.22.72-.29.58-.65,1.08a.43.43,0,0,1,.29.5l-.07.44a9.25,9.25,0,0,1-.36,1.94l.28.07c.15.15.08-.07.22.22s0,.43-.07.72c-.58,0-.29-.07-.87-.29.15.65.36.22.29,1.15v5.12c0,.79.22.72.36,1.51a4.09,4.09,0,0,0,.36,1.51c1.87,3.31,2.67,3,5.76.65l.22-.15a15.19,15.19,0,0,0,2.59-3.38l1-1.87c.5-.94.86-2.09,1.37-3.1.86.15.07.07.79.36.22.07.14.15.14.07h.08c0,.44-.08.72-.08,1.08l-1.58,4.76a9.81,9.81,0,0,1-.86,1.36l-1.8,2.45A5.73,5.73,0,0,1,254,83.11a11.23,11.23,0,0,1-3.67,1.94l-1.22.36H249a8.63,8.63,0,0,1-2.74.07,8.65,8.65,0,0,0-.93-.29,4,4,0,0,1-1.73-.93l-.14-.15c-.87-.79-1-.5-.51-1.51-.21-.14-.72,0-.07-1.44-1.22.58-.58.22-.65,1-1.08.29-.57-.5-1.15-1A4.45,4.45,0,0,1,240.05,79.07Zm.58,1.3c.5-.58.43-.86,0-1.15Zm1.22-1.66c-.14-.14-.72-.07-.07-1.44-1.15.58-.5.22-.5,1l-.15.94Zm.72,2c-.36,0-.21-1-.14-1.44-1.15.57-.43.21-.65,1v.93Z"/><path class="cls-6" d="M439.3,28.71c-1.08-.95.25-1.43.41-1.51l.33-.15c.25-.16,0-.08.67-.08l-1.25-.32V26.1c3.07,0,1.91.71,1.83,1h.83c0-1.27-.42-.64.08-1s0-.08.58.24l1.74,1h1c.08.87.66.63,2.07,1.11s2.07.16,2.49,1.18c.75,1.43,1.41,2,1.74,3.48v1.5a3.68,3.68,0,0,1-.41,1.34c-.25.32-.17.16-.42.4l-.5.47c-.74.95-.41.79-1.82,1.5l-.58.24-.66.32a2.38,2.38,0,0,1-2.08.23c-1.57-.31-.41-.79-1.57-.87v-.87c.66-.07.41-.15.49-.15l1.17-.48a10.22,10.22,0,0,0,1.74-.63l.91-.79a3,3,0,0,0,.66-2.05c-.83.08-.66.39-1.32.63l-1.75.24.25-.71a3,3,0,0,0-1.32.47l-.09.08-.41.47a10.64,10.64,0,0,1-1.08-.63c-.83.4-.75.16-1.16.71l-.25.32-1,1c-.08.08-.08.08-.08.16l-.33.24c-1.16,1.1-1.25,2.92-2.16,4.19-.25.31.09.15-.41.31.5,1.58.41.63-.09,1.58-.33.71-.08,1.5-.33,2.06-.33.86-.41-.08-.33,1s-.16.48-.25,1.11c0,.24.09.71.09,1.1a5.86,5.86,0,0,0,1.32,3c.09,0,.09.07.09.07a5.91,5.91,0,0,0,3.06,1.58,5.34,5.34,0,0,0,1.33.32l1.08-.39a4.27,4.27,0,0,1,2-1h.33c.33.08.42-.08.5.63a9.38,9.38,0,0,1,0,1.5c-.17.48-.75.87-1.16,1.19a18.9,18.9,0,0,1-4.48,2.92c-1.08.55-2.24.95-3.4,1.5-.17.16,0,.08-.25.24-.08.08-.25.08-.25.16a18,18,0,0,0-3.32,2.13l-3.65,4.42-.66,1c-.25.55-.08.16-.17.71l-.08.32c-.16.63-.33.47-.5,1.34a6.4,6.4,0,0,0-.16,1.42c0,1.27.08,3.16,1,3.87a11.14,11.14,0,0,0,5.73,2.21c2.82.4,2,.32,4.31-.15.33-.08,1-.08,1.41-.16a10.89,10.89,0,0,0,4.48-2.77l4-4.89c.58-.87.25-1.5,1.66-1.5.83,1.5-.25,2.68-1,4L448.34,74c-.42.79-.09.32-.33,1.11-.34,1.34-1.75,2.13-2.66,3.08a23.87,23.87,0,0,1-3.15,2.45,33.75,33.75,0,0,1-4.56,2.29l-1.33.47c-.5.08-.66.24-1.08.32a16,16,0,0,1-5,.55c-.09,0-.09-.08-.17-.08-1.41-.47-1.24.39-5.39-1a14.81,14.81,0,0,1-5.89-3.63l-2.49-4a2.57,2.57,0,0,1-.25-1,18.75,18.75,0,0,1,.17-7.11c.25-1,.25-.55.58-1.18l.33-.71c.17-.24,0,.23.33-.4l.58-1.5c.17-.47.25-.39.5-.87l1.16-1.74c.42-.71.91-.87,1.33-1.5l.33-.31.08-.16c0-.08,0-.08.09-.16.16-.32.41-.39.74-.55,1.74-.87-.33-.56,1.66-1.11a4.48,4.48,0,0,1,1.16-.31c-.08-1.19-.08-.64,2.16-1.82.58-.32,1.24-.4,1.41-1-.83-.24-1.82-1.74-2.16-2.53a5,5,0,0,1-.25-.79l-.49-2.21.33-4.11a.28.28,0,0,1,.08-.15c.33-.71,1-.4,1.25-1.5-.67.23-.34.31-1.08.31.41-.63,0-.47.83-.63h.41l.58-.16c-.41-1.34,1.16-1.66-.33-2.29.33-.47-.17-.24.66-.32l-.33-.47c.42-.55.17-.16.5-.47s-.08-.08.5-.32c1.08-.47.41.08,1-.87,1.58-2.68,1.74-.24,1.74-2-.24.31-.16.31-.66.39a4,4,0,0,1,.66-1.1l2-2.69a3.72,3.72,0,0,0-1.07.16l-.17-.32a1.33,1.33,0,0,0,.75-.31c.25-.16,0,0,.25-.24l.66-.79a1.62,1.62,0,0,1,1.49-.24c.42.08.17.24.42.08s.08-.87,0-1c3.65,0,.66-.94,2.32-1.42l.17.71A1.21,1.21,0,0,1,439.3,28.71ZM429.43,38.9c-.5.23-.25-.32-.34.55C429.34,39.37,429.26,39.21,429.43,38.9Zm-.09,2.21c.17,0-.08-.4-.08,0S429.34,41.11,429.34,41.11Zm.33-.63c-.08-.16-.58.39-.08.31Zm2.91-5.22.25-.39c-.58.23-.67,0-.75.79C432.49,35.5,432.33,35.58,432.58,35.26Zm.5-.87c0-.08-.09-.08-.09-.08Zm1.74-2.29c-.33-.71,0-.47-.58-.87l-.34,1C434.65,32.58,433.82,32.34,434.82,32.1Zm.66-.87c.17,0-.16-.39-.16,0S435.48,31.23,435.48,31.23ZM440,27.6c.42.16,0-.32-.25-.08S440,27.6,440,27.6Zm4.65.39c-.17-.39.08-.23-.42-.31Z"/><path class="cls-6" d="M467.5,60.07l.58-.64,3-4c.33-.4,1.16-2.14,1.49-2.37l1.08-.87c.83-.56,2.16-3.48,3.23-3.32l1,.39a1.65,1.65,0,0,1,.58,2.61l-3.24,6.4-5.88,7.66c-.25.4-.25,0-.17.63l1.41,2.37c1.16,1.43,1.41,1,1.41,2.45.91.08.83.08,1.24.71l3.4,3.87a3.08,3.08,0,0,1,.83,1l4.23,4.58c0,.08.09.24.17.24l2.65,2.61a10.62,10.62,0,0,0,.83,1c.5.56.58.08.67,1a1.82,1.82,0,0,1,1.66,1.42l-.75.4c-1.66,1-1.91.55-2.07,1.26a11.24,11.24,0,0,1-2.16-.31,16.17,16.17,0,0,1-4.23-.79l-.91-.4a23.38,23.38,0,0,1-5.81-4.74c-.5-.63-1.41-1.1-2-1.74l-1.24-1.26a38.61,38.61,0,0,1-3.16-4.11l-2.57-2.29c-.25-.24-.41-1.58-.74-1.26l-2.41,2.29c-.08.08-.17.39-.25.39-.16.16-2.82,3-3.15,3.16-2.49,1.58-1.16,1-3.48,3.08-1.83,1.82-.75,1.19-2.82,1.19,0-2.13.16-1.27-1.08-1l-.42-.32c.17-.71.33-.47.58-1.34-.66,0-1.41.08-1.16-.31l.83-1.11a13.37,13.37,0,0,1,1.49-2L454.4,72c.41-.39.74-1,1.16-1.42l1.07-1c.5-.48,2.74-1.74,3-2.45.08-.24.08-.08.08-.4-.58-.16-2.32-3-2.65-3.32l-.5-1.18a7.43,7.43,0,0,1-.66-1.58l.08-.24c-.08-.23.17-.23-.41-.31,0-.87-.17-.71-.34-1.27a11.81,11.81,0,0,0-.91-2.45,8.15,8.15,0,0,1-.25-3.16c.09-.39,0-.15.17-.39.5-.79.58-1.66.91-1.9.91-.63,2.82.71,3.49,1.66l2.23,3.16c.42.55,1,.87,1.41,1.42l3,4.59A7.46,7.46,0,0,0,467.5,60.07Z"/><path class="cls-6" d="M491.89,57.54c.83-.16.25-.08.66-.32l.5-.23a8,8,0,0,1,2.24-1c.83-.08.25-.08,1.08-.4,1-.31.41.08,1.24-.39l3.73-1c.83-.08.17,0,.67-.16l.58-.15c1.08-.24,3.07-.4,4.06.39.58.47.67,1,1.08,1.5l1.41,2.53c-.83.32-.25-.4-.75.32.17.79.34.39.5.94l-1.57,1.58a2.73,2.73,0,0,1-2.66.32l-1.33-.95c-.41-.24-1.32-.08-2.07-.24-.08.79.08.4-.5.79l-1.16.56h-.16c-.42.08-.42,0-.67.23a12.35,12.35,0,0,1-1.08,1.27l-.83.79c-1,1.18-.91.63-1.32,1.42l-.25.55c-.09,0-.09,0-.17.08a1.68,1.68,0,0,0-.41.63l-.58,1.27c-.17.23-.09.23-.17.39l-.75,1-.33.16c.25,1.18.42.55.17,2l-.42,3.4.83,2.21c.42.63.58,1,1,1.58L495.79,80c1.41,1.27,3.73,1.42,5.47,1l.75-.16,1.49-.63c1-.47,1.74-1.5,2.9-1.58.09-.71.5-.71,1.16-1.11l.25-.23,6-5.45c1.25-1.11,2.24-2.37,3.41-3.48l1.07-1,1.83-1.89c0-.08.08-.08.08-.16l.25-.16c.33-.16-.41-.08.58-.16,0,2.14-.83,1.74-1.24,3.24a8.84,8.84,0,0,1-1.25,2.06l-4.73,5.37-.58.55a18.57,18.57,0,0,1-3.48,3.24L508,81.08a20.33,20.33,0,0,1-4.15,2.61,15,15,0,0,1-5.14,1.65,16.17,16.17,0,0,1-7.8-.47l-.74-.32L488,83.29a11.29,11.29,0,0,1-4-5l-.33-.79a3.2,3.2,0,0,1-.34-.79l-.58-2.29c-.08-.94.17.24.17-.71,0-1.58-.42-.39.16-3.32a22.11,22.11,0,0,1,1.25-3.87l1.08-2.05c.08,0,.25-.32.25-.32l.74-.94.17-.32c.41-.55,0-.55.91-.63.08-1.27,1.16-1.9,2.16-2.53.58-.47.5-.08.5-1,1.57-.16.49-.71,2.15-.39-.16-.95-.25-.16-.33-.79Z"/><path class="cls-6" d="M531,88.82c.33-1.11.16-2.69.41-3.95s.08-.71.75-1.58c-.67-.16-.33.16.08-1.42l.33-1.42c.17-2.21,1.66-4.9,2.24-7a2.54,2.54,0,0,1,.42-1l.83-1.9c.66-1.5,1.07-3.24,1.82-4.66l.42-.71,1.49-3.08.16-.4c0-.07.09-.07.09-.15,1.9-3.4-1.41-1.11-2.57-.71-1.41.47-1.25.15-4.48,3.47a4.47,4.47,0,0,0-1,1.19c-.25.39-.16.55-.41.94-.92,1.82-1.58.79-2.16,3.4l-1,2.37a3.79,3.79,0,0,0-.33.79c-.66,1.66-1.74,9-2.65,10.35-2.16,0-.33-1.11-3.49-.55-1.82.31-2.9.15-3.73-1.43a2.45,2.45,0,0,1-.25-.79,3.27,3.27,0,0,1-.41-1.65c-.17-1-.42-.64-.33-1.74l-.25-5c-.08-1.5,1.41-7.66,1.41-9.08a3.37,3.37,0,0,1,.33-1.58l.17-1.5a49.35,49.35,0,0,1,1.07-5l1.75-6.79c.16-1,.49-1.27.66-2.45l.75-3.08c.83-2.61,1.24-5.61,2.4-8.06a5.58,5.58,0,0,0,1.08-3.08,3.58,3.58,0,0,1,3.82,1.5l.33.39c1.41,1.82,1.74,2.69,1.49,4.82l-.25.87c0,.08,0,.08-.08.16l-1.58,6.32c.09.63.25.63,0,1.18l-.16.64c-.17.86.08,1.18-.09,1.89l-.83,4.66c-.33,1.34-.24,2.77-.58,4-.16.71,0,1.34-.33,1.9a25.24,25.24,0,0,0-.83,3.71c-.08.39-.08.24-.25.55a5.08,5.08,0,0,0-.49,2.37c.33-.31,0,0,.24-.39A43.47,43.47,0,0,1,530.29,62a13.77,13.77,0,0,1,4.32-3.71l2.24-1.27a10.83,10.83,0,0,1,3.48-1.26c.33,0,.91-.08,1.24-.08l3.49.08c2.07.4,2.15,1,2.9,2.53a2.89,2.89,0,0,1,0,2.61,14.14,14.14,0,0,1-.5,2.21c-.74,1.58-.91,3.55-1.49,5.13a6.92,6.92,0,0,0-.17,1.27c-.08.07-.08.47-.08.47a1.81,1.81,0,0,0-.08.32l-.67,2a34.59,34.59,0,0,1-.91,4.35c-.08.39-.25.63-.33.94a14.34,14.34,0,0,0-.58,2.53l-.42,1.11-.41,2.13a11.17,11.17,0,0,0-.58,3v.48l-.5,3.08c.08.94-.33,1.42-.33,2.13l.08,1.58c.42,1.66-.25,4.74,2.57,2.61A12.66,12.66,0,0,0,545.89,94l3.81-6.09a49.88,49.88,0,0,0,4.15-8.21,1.9,1.9,0,0,1,.33-.56l.33-.63c.33-.71.09-.55.75-.87l.25.24c.33.79-.08,1,0,1.42s-.08-.23.08.4c.33,1.5-3.48,9.79-4.31,11.21-1.58,2.85-2.08,4.35-4.56,6.8,0,0-.09,0-.09.08a.08.08,0,0,0-.08.08l-.41.39-.5.55-2,1.82a22.14,22.14,0,0,1-2.74,1.5l-.75.4a6.37,6.37,0,0,0-.91.23c-1.08.32-3.73-.23-4.48-.39a3.83,3.83,0,0,1-1.74-.63l-.17-.08c-.41-.24-.74-1.9-.83-2.61C532.2,98.7,530.46,90.72,531,88.82Zm1.57,11.61c.33-.39.25-.23-.16-.39Zm.42.71.33-.15C534.27,100.75,532,99.64,533,101.14Zm0,.4c.33-.32.08-.16-.25-.32Zm.58-2.13c-.17-.08-.67,0-.17-.79-1,.31-.5.08-.41.55l-.09.55Zm.58,1.26v-.16c-.17,0-.25-.08-.25-.16-.33.08-.17.16,0,.4Zm.58,1c-.25-.08-.67,0-.17-.79-1.08.31-.5.08-.58.55V102Zm.41-2.06c-.25-.16-.66-.08-.25-.87-1,.32-.41.08-.41.56v.55Zm.42.87a.63.63,0,0,1-.33.16l.25-.63c-1.17.39-.5.16-.5.63v.55Zm.66,1.42c-.16-.08-.66,0-.16-.87-1.08.32-.5.08-.58.56v.55Z"/><path class="cls-6" d="M568.37,55.8c.33-.16.08-.08.41-.08,1.08-.08,1.25-.47,2.49-.47l.25.47c.58,1,.58-.55,2,.08l-.58-.95h1.16c.83,3.32.66.4.66.08.67-.24.5,1,.59-.08a19.92,19.92,0,0,0,2.15.32,2.4,2.4,0,0,1,1.66.63,2,2,0,0,1,1.25-.87,1.08,1.08,0,0,1,.49.08c4,.4,4.56.08,4.56,3.87,0,2-.58,2.13-1.32,4.58l-.25.56-1.25,3.08a40.35,40.35,0,0,0-1.32,5.05c-.09.32-.09.79-.17,1.35a10.72,10.72,0,0,0-.16,5.37c.33,1.42.74,3.39,1.82,4.42a2.8,2.8,0,0,0,3.65.47l1.49-.86c.09-.08.09-.08.17-.08L597,74.68c.42-.39.67-.47,1.08-.87a10,10,0,0,0,1.16-1.5l.25.08.09.63.41-.63.33.08-.16.71a2.12,2.12,0,0,0-.17.63,4.68,4.68,0,0,0-.91,1.19,18.25,18.25,0,0,1-2.91,3.71,7.45,7.45,0,0,0-.74.87c-1.25,1.74-3.15,2.68-4.65,4.18l-.08.08c-.08.08-.08.08-.08.16a10.72,10.72,0,0,1-3.24,2.13,5.3,5.3,0,0,1-2.24.4c-1.41-.08-1.32.32-2.4.39-.83.08-.33-.15-1.33,0a2.73,2.73,0,0,1-1.08.16,7.93,7.93,0,0,1-2.4-.23,8.75,8.75,0,0,1-5.06-3.32.08.08,0,0,0-.09-.08l-.49-.87a13.15,13.15,0,0,1-1-2.13c-1.33,0-.75.08-1.66.55-2.74,1.74-6.63,2.92-9.87,1.82a12.1,12.1,0,0,1-5.39-3.16l-.33-.32-.83-1.5a6.58,6.58,0,0,1-.75-5.69,26,26,0,0,1,2.74-6.4.22.22,0,0,0,.08-.15l4-3.87a11.59,11.59,0,0,1,3.4-2.06c-.82-.39,1.58-2.13,2.33-2.29a2.81,2.81,0,0,1,1.9-.79C567,56,567,56.35,568.37,55.8ZM562,74.29c-.16.71-.58,1.89.08,2.37,1.08.79.09,1.26,1.25,2.37a4.41,4.41,0,0,0,3.81.86,5.68,5.68,0,0,0,.75-.23l1.82-1.11a3.12,3.12,0,0,1,1.25-.79,7.59,7.59,0,0,1-.08-3.4,20.6,20.6,0,0,1,.49-3.87l.09-.08v-.15l1.66-4.58c.66-1.27,2.73-4.51,2.73-5.3-.83.56-1.74.71-2.73,1.27-4.4,2.52-5.23,2.68-6.14,3.95l-1.58,2.13.75.39-.75.24c-.25.24-.08.16-.16.32v.15c-.09.72-.09.24-.58.87,1,.16.58-.31.74.32-1.66,0-.74-.08-1.33.55-.16.24,0,.16-.41.32-.83.31-.25.08-.41-.08-1.91,1-1,.55-.92.87,0,0,.92.24-.25.24-.66.07-.91-.32-.66.47a7.67,7.67,0,0,1,1.24-.16c.75,0,.83,0,1,.55-1.24,0-.58-.15-.83.32-.58.24-.41-.32-.25.63,1.33-.47-.58.56,1.08.16v.63c-1,.24-.66.48-.41,1.27-.5-.16-.5.31-.67-1.5Z"/><path class="cls-6" d="M593.67,75.87V74.05c.08-1,.08-.08.25-.79.08-.4,0-.24,0-.79a22.49,22.49,0,0,1,.66-3.56l.17-1a.08.08,0,0,0,.08-.08l.66-3.08c.34-.48.92-3.32,1.41-4.19l1.91-4.34a3.16,3.16,0,0,1,.33-.79l.92-2.22c.83-2.13.58-.31.49-2.29.5-.16.58-.31,1-.71.66-.55,1.57-.08,1.91-.95h2.65l.41.72.5.47c1,1.18.67,3.16.25,4.5l-.33,2.37a.29.29,0,0,0-.08.24l-.09.31a9.52,9.52,0,0,0,0,1.51l-.25,1a2.67,2.67,0,0,0,1.33-.87c.25-.31-.08.08.25-.31l.91-.79a12.45,12.45,0,0,1,2.82-1.66l3.32-1.27c2.66-.63,1.66-1.5,4.65-.63.83.24,1-.08,2,.32l.74.31c1.25.87.75,4.74.58,5.85-.16,1.74-.74,3.16-.91,4.9s-1,3.24-1.32,5l-.34,1.51c-.16.71-.08,1.34-.25,2-.33,1.11-.91,3.79-.33,5.14s.25.71,0,1.5l-.08,1.5a4.84,4.84,0,0,0,0,2.45v.23l.08.08v.16l.09,2.05v.4c-.09.55-.25.39-.09,1a7,7,0,0,1,.09.79c.91,0,.58.08,1.16-.24,0,0,.25-.16.25-.24l.24-.23c.67-.72,1.17-1,1.83-1.66.08,0,.08,0,.08-.08l3.15-3.79.17-.32,1.83-2.84a3.49,3.49,0,0,0,.41-.71,4.76,4.76,0,0,0,.91-1.51l.25-.47,3.32-5.21c0-.08.08-.08.08-.16a22.51,22.51,0,0,1,2.74-3.4c.75-.39.91-.16,1,.55v.32c.09,1.42-.58,2.29-1.32,3.4l-.33.71c-.09,0-.09,0-.09.08l-1.57,3.79c-.17.24-.17.47-.33.71a59.12,59.12,0,0,1-5.65,9c-1.24,1.42-.66,1.1-1.82,2.29-1.66,1.58-2.9,2.76-5.31,3.39l-1.24.4a8,8,0,0,1-1.5.55,13.47,13.47,0,0,1-5,.32h-.42a3.28,3.28,0,0,1-1.49-.48c-1.58-.63-2-1.66-2.74-3l-1.24-4.66a4.75,4.75,0,0,1,1-.32v-1.5c-.33-.15.34-.23-.58,0,0-2,.67.08,1.08-1.26a8.47,8.47,0,0,0-.08-3.55c-.58-1.35.83-1.82-.42-2.69.58-.79.25-.4.34-.79a1.9,1.9,0,0,1,.82-.79v2.13c.75-.16.67-.63.67-2.13l-1.08-1c.25-.95.83-.95-.17-1.1.42-.56-.16-.24.75-.32-.08-.87-1-1.74.58-1.82-.5-.71-.33-.16-.33-.79l.5-1.81a27.06,27.06,0,0,0,1-2.53,9.36,9.36,0,0,1,.91-1.5l3.49-6.32a11.09,11.09,0,0,0-2.24,1c-2.9,1.34-2.66,1.89-4.73,3.71l-.41.39c-.58.87-.34,1.42-.58,2.45-.5,1.35-.83.79-1.83,4.19-.41,1.5-.83,1.34-.58,2l-.75,2.14.75.23c-1.08,2.61-.5,1.27-.17,2,.17.31,0,.31,0,.63v.08c0,.55.25.16,0,.79-.16.24-.25,0,.09.63.25.4.16-.31.25.63a10.42,10.42,0,0,1-.34,1.43c-.91-.08-.58-.16-1.16-.56l-.66,1.27c-.66.71-2.65.15-3.9.23-1.66.24-1,.63-3.73,0-.58-.16-.5.24-1.16-1l-.17-.24a8.54,8.54,0,0,1-.66-3.79c.16-.71,0,.23.33-.63Z"/><path class="cls-6" d="M659.78,49.72c1.08-.95,4.48-1.58,4.31.08-.16,2.76-.66-.48-1.08,4.34a22.6,22.6,0,0,1-.25,2.45c-.16.63.17.87.17,1.9-.08.63-.08,1.81-.08,2.21s0-.16.16.47a19.39,19.39,0,0,1,0,2.29l1.08,8.69c.17.79.17,1.19.33,1.66l.17,11.3c0,1.1-.33,1.34-.33,2-.09.79.16.32-.25,1.27L663.18,91c-.5,1-.66,2.21-1.08,3.24l-.5.87a6,6,0,0,1-.41,1.34l-.67,1c-.08.24-.16.24-.41.55l-1.91,3.56v.08l-.5.79a13.94,13.94,0,0,1-1.57,2.84l-2.57,2.45-.33.16c-.67.55-.75,1-1.5,1.42l-2.24,1a13.39,13.39,0,0,1-4.89,1,11,11,0,0,0-1.66-.07c-2.07.23-1.08.31-2.57-.32-4.15-1.74-2.82-.24-5-2.37l-2.16-1.9a.08.08,0,0,0-.08-.08l-1.66-2.52A4.67,4.67,0,0,1,631,103a2.61,2.61,0,0,1-.5-1.11l-.42-3.31a10.92,10.92,0,0,1,.75-3.24,9.11,9.11,0,0,1,.41-1.5c.17-.4.5-.71.67-1.11l2.74-3.87a13.24,13.24,0,0,1,3-2.29l2.07-1.11a4.88,4.88,0,0,1,3.16.08c1.49.71,1.66.4,1.49,2.21-1.24.24-1.58-.15-2.74.16a10.44,10.44,0,0,0-3.4,1.35,3.27,3.27,0,0,1-.41.23,8.54,8.54,0,0,0-2.49,3.32l-.17.24a7.46,7.46,0,0,0-.83,2.6,7.63,7.63,0,0,0,1.66,5l.09.08.66.79a1.91,1.91,0,0,0,1,.47l.17.16a3.43,3.43,0,0,0,1.74.55,30.23,30.23,0,0,1,3.57,0c-.83-1.89,1.41-.55,2-.39a4.67,4.67,0,0,1-.17-1l2.91-1.66a1.67,1.67,0,0,1,.49-.31c.5-.56.67-.56.83-1.19l.34-1.26c.91.16.41.39.58-.16-.42-.16-.34-.16-.09-.71a.08.08,0,0,1,.09-.08l.16-.63c.58-1.58,2.16-2.53,2.49-4.27l.5-1.74.66-1.65,1-6.25.58-5-.33-5.45-.09-.08v-.08c-.08-.55.33-.08-.25-.55-.08,1-.16.63-.74,1.34-.58.47-.5.63-.91,1.26l-.42.64a2.14,2.14,0,0,1-.58.39c-.33.48-.17.24-.25.55l-2.9,2.06a21.38,21.38,0,0,1-3.9,1.5l-4.56-.71c-1.58-.24-3.24-.4-4.23-2.06s-2-2.05-1.66-4c.5-2.68-.17-2,1-5.37.83-2.29.83-1.66,1.83-3.55a20.43,20.43,0,0,0,1.24-2.37c1.08,0,.75-.55,2-1.74.75-.79.91-1.26,1.91-1.82,2.07-1.34,1.58-1.58,4.65-3.24l1.32-.86c.25,0,.17.07.42-.08l4.89-1a8,8,0,0,1,4.07.47ZM639,109.83c-1-.87-.83-1.18-1.66-1.81A2.15,2.15,0,0,0,639,109.83Zm16-48c.08-.71.5-2.44.58-3.23-1.16,0-.58.23-1.82.71-.5.23-.42,0-.75.47-1.08,1.34-1.41,1.11-2.08,1.82-.49.55-.33.63-1.07.79h-.09L648.66,64c-.25.47-.08,0-.25.39l-.24.32a.08.08,0,0,1-.09.08c-.5.71.17.39-.91.31v.48c.5.23.25-.08.41.39-1.32.71-.24-.08-.91,1.42-3.81,8.85,1.41,7.51,6,1.5l.59-.63A18.13,18.13,0,0,0,655,65,22.07,22.07,0,0,1,655.05,61.8Z"/><path class="cls-6" d="M693.45,66.62c-.58,1.19-2.73,2.14-3.81,2.93a17.69,17.69,0,0,1-1.82,1.5l-.67.47c-.33.32-.25.4-.5.71-.41.4-.91.55-1.32,1s-.17-.16-.25.63c-.92.16-.33.4-2.41,1.74-1,.71-1.66,1-1.16,2.21a7.41,7.41,0,0,0,1.91,3.4c1.08,1,3.07.71,4.64.39a8,8,0,0,0,1.66-.47c4.81-1.74,5.73-2.69,9.71-6.32l.25-.16.08-.08,6-5.84.5-.48a24.5,24.5,0,0,1,2-2l3.24-2.85a1.89,1.89,0,0,1,1.24-.63c.25.87.33.4-.08,1.19l-3.32,4.42a.08.08,0,0,1-.08.08c0,.08,0,.08-.09.16l-.91,1.1a34.34,34.34,0,0,1-2.9,3.16l-1.49,1.5a3.51,3.51,0,0,0-.75.79c-.42.48-.17.48-1,.56-.08.79-.58,1-1.07,1.5l-4.15,3.55a12,12,0,0,1-1.49,1.11,10.87,10.87,0,0,1-1.58.87,15.38,15.38,0,0,1-3.73,1.42v.39l1.32-.39c-.41.55-.74.55-1.74.55a13,13,0,0,0-1.9.4,29.19,29.19,0,0,1-6.06.55,12.63,12.63,0,0,1-6.8-2,22.7,22.7,0,0,1-3.4-4l-.67-1.11a11.19,11.19,0,0,0-.58-1.58,4.3,4.3,0,0,1-.66-2.13,33.17,33.17,0,0,1,.08-4.19c0-.55-.16-.39-.16-1.11,0-.23.33-.39.49-.86l.17-1c.66-2.21,1.58-2.77,2.57-4.35l3.4-3.87a15.9,15.9,0,0,1,5.64-3.79c1.41-.63,5.64-2,7-1.82a15.82,15.82,0,0,0,2-.08c1.25,0,3.65.56,4.32,1.58l1,1.9a7.83,7.83,0,0,1,.5,2.21,14.32,14.32,0,0,1-.75,3.56c-.66.63-1.74,1.34-1.74,2.21,0,.39.08.39.17.32C694.37,66.07,693.7,66,693.45,66.62Zm-10.61,5.45a11.21,11.21,0,0,1,1.49-1.34l1.58-1.26c.58-.48,1-.56,1.57-1.11,1.5-1.42,1.5-1,2.16-2l.66-.71c1.25-1.19,1.58-1.82.42-3.48a4.28,4.28,0,0,0-1.5.39,2.59,2.59,0,0,1-1.4.32v.55c-1.25.08-1.66.79-2.49,1.19s-.58,0-1,.87c-1.08,2.29-1.58,1.26-2.07,3.24-.67,2.52-.83-.16-.83,2.29,0,.55-.33.39-.33,1.1,0,.16.08.56.08,1.11Z"/></g></g></svg>