<svg xmlns="http://www.w3.org/2000/svg" viewBox="0 0 713.13 111.49"><defs><style>.cls-1{fill:#a71e2d;}.cls-2{fill:#f0a31f;}.cls-3{fill:#f4b53d;}.cls-4{fill:#b87d2b;}.cls-5{fill:#da1e38;}.cls-6{font-size:72px;}.cls-14,.cls-6{fill:#d14b64;font-family:AmulhedDemo, Amulhed Demo;}.cls-7{letter-spacing:-0.11em;}.cls-8{letter-spacing:-0.02em;}.cls-9{letter-spacing:0em;}.cls-10{letter-spacing:0em;}.cls-11{letter-spacing:-0.01em;}.cls-12{letter-spacing:-0.07em;}.cls-13{letter-spacing:-0.07em;}.cls-14{font-size:79px;letter-spacing:-0.01em;}.cls-15{letter-spacing:-0.01em;}.cls-16{letter-spacing:0.01em;}.cls-17{letter-spacing:-0.01em;}.cls-18{letter-spacing:-0.02em;}.cls-19{letter-spacing:-0.05em;}.cls-20{letter-spacing:0.06em;}</style></defs><title>Logo</title><g id="Layer_2" data-name="Layer 2"><g id="Layer_2-2" data-name="Layer 2"><path class="cls-1" d="M342.66,32a188.51,188.51,0,0,1-21.32-1.08c-1.79-.23-3.58-.5-5.39-.9-.9-.2-1.81-.43-2.73-.72a14.9,14.9,0,0,1-2.82-1.2,8.13,8.13,0,0,1-.74-.47l-.37-.29-.19-.15-.23-.23a5.85,5.85,0,0,1-.45-.54l-.21-.28-.1-.17-.17-.29,0-.07v0c.1.24-.15-.35-.12-.3l0-.05-.06-.22a7.92,7.92,0,0,1-.38-1.76l-.07-.88a8.06,8.06,0,0,1,0-.85,14,14,0,0,1,2-6,17.17,17.17,0,0,1,4-4.7l.63-.5.68-.44c.23-.15.46-.3.7-.44l.77-.37a8.94,8.94,0,0,1,1.65-.61l.43-.12c.17,0,.36-.06.54-.09.37-.05.75-.08,1.12-.11h.42l.33,0,.33,0h.23l.3,0,.1,0c.52.13,1.06.21,1.55.38a13.53,13.53,0,0,1,1.48.5,14.77,14.77,0,0,1,1.4.61,26.11,26.11,0,0,1,4.93,3.16A45.07,45.07,0,0,1,338.5,21a62,62,0,0,1,5.76,9.21c.51,1-1.75,2.39-2.4,1.53-2.13-2.74-4.39-5.39-6.74-7.89A57,57,0,0,0,327.66,17a24.07,24.07,0,0,0-4.05-2.44,9.1,9.1,0,0,0-1-.44,10.59,10.59,0,0,0-1-.35c-.34-.12-.68-.16-1-.25h-.06l.25,0h-.23l-.33,0-.33,0h-.16s0,0-.07,0a.51.51,0,0,1-.2.06h-.12l-.2.06a4.28,4.28,0,0,0-.85.29l-.43.19-.43.26-.44.26-.43.32a13.12,13.12,0,0,0-3,3.18A9.89,9.89,0,0,0,311.92,22a4.13,4.13,0,0,0-.06.91,3.72,3.72,0,0,0,.1.84v.11h0c-.2-.05.44.13-.44-.11l.07,0,.12,0,.26.05.07.15s.05.14.06.12v0s0,0,0,0,0,0,.06.08l.14.13a2.25,2.25,0,0,0,.36.27,10.24,10.24,0,0,0,2,1,22.88,22.88,0,0,0,2.33.86c1.6.53,3.27,1,5,1.36a173.23,173.23,0,0,0,20.8,3.3C343.88,31.19,343.78,32,342.66,32Z"/><path class="cls-1" d="M344.38,31.12a171.11,171.11,0,0,0,20.81-3.3c1.69-.4,3.36-.85,5-1.37.8-.26,1.58-.56,2.32-.87a11,11,0,0,0,2-1,3,3,0,0,0,.36-.28l.14-.13.07-.06s0,0,0,0,0,0,0,0a0,0,0,0,0,0,0l.06-.12.14-.3,0-.08v0l-.11.26v-.13a3.72,3.72,0,0,0,.1-.84v-.44a3.81,3.81,0,0,0-.07-.47,9.67,9.67,0,0,0-1.61-3.84,12.73,12.73,0,0,0-3-3.17l-.42-.32-.44-.26-.43-.25-.44-.19a4.19,4.19,0,0,0-.84-.29l-.2-.06h-.11a.76.76,0,0,1-.2-.06s0,0-.07,0h-.17l-.33,0-.33,0h-.23l.26,0h-.06c-.34.09-.68.13-1,.25s-.69.21-1,.35-.69.28-1,.44a25.18,25.18,0,0,0-4.05,2.44A57.46,57.46,0,0,0,352,23.81c-2.37,2.47-4.66,5.11-6.82,7.82-.65.83-2.94-.48-2.4-1.52a65.22,65.22,0,0,1,5.84-9.17,46.16,46.16,0,0,1,7.67-8,25.81,25.81,0,0,1,4.92-3.15,12.35,12.35,0,0,1,1.4-.61,13.56,13.56,0,0,1,1.48-.51,15.23,15.23,0,0,1,1.55-.37l.1,0,.29,0h.23l.33,0,.33,0h.43c.37,0,.74.06,1.11.11.18,0,.38.05.54.09l.43.12a9.22,9.22,0,0,1,1.65.61l.76.37c.24.13.47.28.7.43l.69.44.62.5a17,17,0,0,1,4,4.69,13.94,13.94,0,0,1,2,6,8,8,0,0,1,0,.85l-.06.88a8.53,8.53,0,0,1-.38,1.76l-.06.22v0c-.06.13.11-.26-.13.31l0,0,0,.07L379,26c0,.06,0,.07-.1.17l-.21.29c-.15.19-.3.37-.46.54a2.53,2.53,0,0,1-.42.38l-.37.29a5.29,5.29,0,0,1-.74.47,14.6,14.6,0,0,1-2.82,1.21q-1.38.44-2.73.72c-1.81.4-3.6.68-5.39.91a184,184,0,0,1-21.32,1.09C343.24,32.05,343.27,31.23,344.38,31.12Z"/><rect class="cls-2" x="293.71" y="49.64" width="99.66" height="51.53"/><path class="cls-3" d="M358.3,84a3.16,3.16,0,1,0,.19-6.32A3.16,3.16,0,1,0,358.3,84Z"/><path class="cls-3" d="M347.81,67.08a3.16,3.16,0,1,0-.05,6.31,3.16,3.16,0,1,0,.05-6.31Z"/><path class="cls-3" d="M361.56,59.67a3.17,3.17,0,1,0-3.3,3.11A3.1,3.1,0,0,0,361.56,59.67Z"/><path class="cls-3" d="M344.61,91.34a3.12,3.12,0,0,0,3.15,3.28,3.16,3.16,0,0,0,.05-6.32A3.11,3.11,0,0,0,344.61,91.34Z"/><path class="cls-3" d="M340.33,59.77a3.16,3.16,0,1,0-3.22,3A3.1,3.1,0,0,0,340.33,59.77Z"/><path class="cls-3" d="M326.39,94.62a3.16,3.16,0,1,0-3-3.24A3.09,3.09,0,0,0,326.39,94.62Z"/><path class="cls-3" d="M337.28,84A3.16,3.16,0,1,0,334,80.87,3.07,3.07,0,0,0,337.28,84Z"/><path class="cls-3" d="M347.92,52.16a3,3,0,0,0,3-2.52h-6.2A3.09,3.09,0,0,0,347.92,52.16Z"/><path class="cls-3" d="M379.67,56.45a3.17,3.17,0,1,0,3.11,3.12A3.09,3.09,0,0,0,379.67,56.45Z"/><path class="cls-3" d="M305.28,52.16a3.07,3.07,0,0,0,3.15-2.52h-6.2A3.08,3.08,0,0,0,305.28,52.16Z"/><path class="cls-3" d="M294.8,98.91a3.27,3.27,0,0,0-1.09.16v2.1h4A3,3,0,0,0,294.8,98.91Z"/><path class="cls-3" d="M368.87,52.16a3.08,3.08,0,0,0,3.24-2.52h-6.2A3.06,3.06,0,0,0,368.87,52.16Z"/><path class="cls-3" d="M365.85,91.39a3.17,3.17,0,1,0,3.32-3.09A3.09,3.09,0,0,0,365.85,91.39Z"/><path class="cls-3" d="M376.47,81a3.16,3.16,0,1,0,3.12-3.29A3.1,3.1,0,0,0,376.47,81Z"/><path class="cls-3" d="M369,67.08a3.16,3.16,0,1,0,3.2,3.21A3.1,3.1,0,0,0,369,67.08Z"/><path class="cls-3" d="M305.46,67.08a3.16,3.16,0,1,0,3,3.19A3.06,3.06,0,0,0,305.46,67.08Z"/><path class="cls-3" d="M358.48,98.91a3.09,3.09,0,0,0-3.11,2.26h6.06A3.08,3.08,0,0,0,358.48,98.91Z"/><path class="cls-3" d="M379.63,98.91a3,3,0,0,0-3,2.26h6A3,3,0,0,0,379.63,98.91Z"/><path class="cls-3" d="M337.14,98.91a3.06,3.06,0,0,0-3,2.26h6.05A3.07,3.07,0,0,0,337.14,98.91Z"/><path class="cls-3" d="M390.28,67.08a3.16,3.16,0,1,0,.1,6.31,3,3,0,0,0,3-2.87v-.59A3,3,0,0,0,390.28,67.08Z"/><path class="cls-3" d="M390.11,52.16a3.05,3.05,0,0,0,3.22-2.52h-6.2A3.09,3.09,0,0,0,390.11,52.16Z"/><path class="cls-3" d="M315.89,98.91a3.1,3.1,0,0,0-3,2.26H319A3.08,3.08,0,0,0,315.89,98.91Z"/><path class="cls-3" d="M390.39,88.3a3.16,3.16,0,1,0-.3,6.32,3.07,3.07,0,0,0,3.28-2.87v-.58A3,3,0,0,0,390.39,88.3Z"/><path class="cls-3" d="M315.89,84a3.16,3.16,0,1,0,.11-6.32,3.16,3.16,0,1,0-.11,6.32Z"/><path class="cls-3" d="M329.72,70.2a3.17,3.17,0,0,0-6.33.06,3.11,3.11,0,0,0,3.29,3.13A3.07,3.07,0,0,0,329.72,70.2Z"/><path class="cls-3" d="M326.33,52.16a3.1,3.1,0,0,0,3.33-2.52h-6.2A3.08,3.08,0,0,0,326.33,52.16Z"/><path class="cls-3" d="M319.11,59.69a3.17,3.17,0,1,0-3.32,3.09A3.12,3.12,0,0,0,319.11,59.69Z"/><path class="cls-3" d="M297.88,80.92a3.09,3.09,0,0,0-3.17-3.24,3.22,3.22,0,0,0-1,.17v6a3,3,0,0,0,.85.16A3.09,3.09,0,0,0,297.88,80.92Z"/><path class="cls-3" d="M293.71,56.62v6a3.21,3.21,0,0,0,1,.16,3.17,3.17,0,0,0,0-6.33A3.42,3.42,0,0,0,293.71,56.62Z"/><path class="cls-3" d="M302.16,91.53a3.17,3.17,0,1,0,3.18-3.23A3.1,3.1,0,0,0,302.16,91.53Z"/><rect class="cls-2" x="288.45" y="30.58" width="110.18" height="19.06"/><rect class="cls-4" x="293.71" y="49.64" width="99.66" height="6.75"/><rect class="cls-5" x="337.3" y="30.58" width="12.49" height="70.59"/><text></text><path class="cls-5" d="M342.57,31.62a189.74,189.74,0,0,1-19.15-9.43c-1.55-.92-3.09-1.88-4.59-3-.75-.54-1.49-1.11-2.22-1.74a14.56,14.56,0,0,1-2.12-2.22,5,5,0,0,1-.49-.72l-.23-.42-.11-.2c0-.07-.08-.21-.12-.31s-.15-.45-.21-.68l-.08-.34c0-.11,0-.12,0-.19l0-.33V11.6l0-.23a7.74,7.74,0,0,1,.35-1.76l.28-.84c.1-.27.25-.51.37-.76a14.12,14.12,0,0,1,4.2-4.77A17.1,17.1,0,0,1,324,.52l.77-.21.81-.14c.27,0,.54-.09.81-.12l.86,0a9.59,9.59,0,0,1,1.75.1l.45.05L330,.3c.36.1.72.21,1.07.34l.24.09.15.08.29.15.3.15.15.07,0,0h0l.26.15.08.06c.43.32.9.61,1.29,1a14.37,14.37,0,0,1,1.15,1c.38.36.72.74,1,1.12a26,26,0,0,1,3.27,4.85,45.25,45.25,0,0,1,3.83,10.43,63.38,63.38,0,0,1,1.64,10.74c.07,1.14-2.55,1.5-2.81.45-.87-3.35-1.89-6.68-3.07-9.9a56.24,56.24,0,0,0-4.17-9.17A24,24,0,0,0,332,8.09a10,10,0,0,0-.78-.81,9.2,9.2,0,0,0-.81-.73,9.68,9.68,0,0,0-.84-.63l-.05,0,.22.13h0l0,0-.14-.08-.3-.15-.29-.15-.15-.08h-.06a.54.54,0,0,1-.22,0l-.11,0-.21,0a4.2,4.2,0,0,0-.89-.06h-.47l-.5.06-.51.07-.51.12a12.8,12.8,0,0,0-4,1.75,9.73,9.73,0,0,0-3,2.9,3.68,3.68,0,0,0-.42.81,3.56,3.56,0,0,0-.24.81l0,.1h0c-.16-.12.36.29-.36-.27l.06,0,.1.07c.07.06.16.11.21.16v.16s0,.15,0,.13l0,0s0,0,0,0,0,0,0,.09l.08.17a2,2,0,0,0,.22.39,9.89,9.89,0,0,0,1.39,1.74,24.37,24.37,0,0,0,1.79,1.71c1.27,1.11,2.63,2.18,4,3.21A175.32,175.32,0,0,0,343,30.78C344,31.35,343.61,32.06,342.57,31.62Z"/><text class="cls-6" transform="translate(0 87.71)"><tspan class="cls-7">T</tspan><tspan class="cls-8" x="38.81" y="0">h</tspan><tspan class="cls-9" x="68.76" y="0">e </tspan><tspan class="cls-10" x="120.82" y="0">G</tspan><tspan class="cls-11" x="152.78" y="0">r</tspan><tspan class="cls-12" x="175.75" y="0">e</tspan><tspan class="cls-13" x="203.47" y="0">a</tspan><tspan x="236.09" y="0" xml:space="preserve">t        </tspan></text><text class="cls-14" transform="translate(415.8 87.71) scale(1.05 1)">E<tspan class="cls-15" x="34.13" y="0">x</tspan><tspan class="cls-16" x="65.81" y="0">c</tspan><tspan class="cls-17" x="97.64" y="0">h</tspan><tspan class="cls-18" x="131.22" y="0">a</tspan><tspan class="cls-19" x="170.96" y="0">n</tspan><tspan class="cls-20" x="205.72" y="0">g</tspan><tspan class="cls-16" x="243.48" y="0">e</tspan></text></g></g></svg>